<svg width="35" height="34" viewBox="0 0 35 34" fill="none" xmlns="http://www.w3.org/2000/svg">
<g id="bx-search-alt 1">
<path id="Vector" d="M14.5833 25.5C17.1718 25.4995 19.6857 24.6577 21.7248 23.1087L28.1356 29.3363L30.1977 27.3332L23.7868 21.1055C25.3823 19.1245 26.2493 16.6819 26.25 14.1667C26.25 7.91776 21.016 2.83334 14.5833 2.83334C8.15058 2.83334 2.91663 7.91776 2.91663 14.1667C2.91663 20.4156 8.15058 25.5 14.5833 25.5ZM14.5833 5.66668C19.4089 5.66668 23.3333 9.47893 23.3333 14.1667C23.3333 18.8544 19.4089 22.6667 14.5833 22.6667C9.75767 22.6667 5.83329 18.8544 5.83329 14.1667C5.83329 9.47893 9.75767 5.66668 14.5833 5.66668Z" fill="black"/>
<path id="Vector_2" d="M16.6425 12.1635C17.1952 12.7018 17.5 13.413 17.5 14.1667H20.4166C20.4179 13.4221 20.2673 12.6847 19.9734 11.997C19.6795 11.3094 19.2483 10.6851 18.7045 10.1603C16.4966 8.01833 12.6685 8.01833 10.462 10.1603L12.5212 12.1663C13.6295 11.0925 15.54 11.0953 16.6425 12.1635Z" fill="black"/>
</g>
</svg>
