<svg width="265" height="57" viewBox="0 0 265 57" fill="none" xmlns="http://www.w3.org/2000/svg">
<g filter="url(#filter0_d_35_520)">
<mask id="path-1-outside-1_35_520" maskUnits="userSpaceOnUse" x="51" y="10" width="209" height="31" fill="black">
<rect fill="white" x="51" y="10" width="209" height="31"/>
<path d="M58.12 32.6L57.76 25.12L71.16 11H78.36L66.28 24L62.68 27.84L58.12 32.6ZM52.32 39V11H58.76V39H52.32ZM71.48 39L61.52 26.8L65.76 22.2L79.04 39H71.48ZM101.129 11H107.609V39H101.129V11ZM88.4094 39H81.9294V11H88.4094V39ZM101.609 27.52H87.9294V22.04H101.609V27.52ZM124.034 39.32C121.741 39.32 119.701 38.84 117.914 37.88C116.154 36.92 114.754 35.6133 113.714 33.96C112.701 32.28 112.194 30.3733 112.194 28.24C112.194 26.08 112.701 24.1733 113.714 22.52C114.754 20.84 116.154 19.5333 117.914 18.6C119.701 17.64 121.741 17.16 124.034 17.16C126.301 17.16 128.327 17.64 130.114 18.6C131.901 19.5333 133.301 20.8267 134.314 22.48C135.327 24.1333 135.834 26.0533 135.834 28.24C135.834 30.3733 135.327 32.28 134.314 33.96C133.301 35.6133 131.901 36.92 130.114 37.88C128.327 38.84 126.301 39.32 124.034 39.32ZM124.034 34.2C125.074 34.2 126.007 33.96 126.834 33.48C127.661 33 128.314 32.32 128.794 31.44C129.274 30.5333 129.514 29.4667 129.514 28.24C129.514 26.9867 129.274 25.92 128.794 25.04C128.314 24.16 127.661 23.48 126.834 23C126.007 22.52 125.074 22.28 124.034 22.28C122.994 22.28 122.061 22.52 121.234 23C120.407 23.48 119.741 24.16 119.234 25.04C118.754 25.92 118.514 26.9867 118.514 28.24C118.514 29.4667 118.754 30.5333 119.234 31.44C119.741 32.32 120.407 33 121.234 33.48C122.061 33.96 122.994 34.2 124.034 34.2ZM153.085 17.16C154.792 17.16 156.312 17.5067 157.645 18.2C159.005 18.8667 160.072 19.9067 160.845 21.32C161.618 22.7067 162.005 24.4933 162.005 26.68V39H155.765V27.64C155.765 25.9067 155.378 24.6267 154.605 23.8C153.858 22.9733 152.792 22.56 151.405 22.56C150.418 22.56 149.525 22.7733 148.725 23.2C147.952 23.6 147.338 24.2267 146.885 25.08C146.458 25.9333 146.245 27.0267 146.245 28.36V39H140.005V17.48H145.965V23.44L144.845 21.64C145.618 20.2 146.725 19.0933 148.165 18.32C149.605 17.5467 151.245 17.16 153.085 17.16ZM180.741 17.16C182.448 17.16 183.968 17.5067 185.301 18.2C186.661 18.8667 187.728 19.9067 188.501 21.32C189.275 22.7067 189.661 24.4933 189.661 26.68V39H183.421V27.64C183.421 25.9067 183.035 24.6267 182.261 23.8C181.515 22.9733 180.448 22.56 179.061 22.56C178.075 22.56 177.181 22.7733 176.381 23.2C175.608 23.6 174.995 24.2267 174.541 25.08C174.115 25.9333 173.901 27.0267 173.901 28.36V39H167.661V17.48H173.621V23.44L172.501 21.64C173.275 20.2 174.381 19.0933 175.821 18.32C177.261 17.5467 178.901 17.16 180.741 17.16ZM206.154 39.32C203.7 39.32 201.54 38.84 199.674 37.88C197.834 36.92 196.407 35.6133 195.394 33.96C194.38 32.28 193.874 30.3733 193.874 28.24C193.874 26.08 194.367 24.1733 195.354 22.52C196.367 20.84 197.74 19.5333 199.474 18.6C201.207 17.64 203.167 17.16 205.354 17.16C207.46 17.16 209.354 17.6133 211.034 18.52C212.74 19.4 214.087 20.68 215.074 22.36C216.06 24.0133 216.554 26 216.554 28.32C216.554 28.56 216.54 28.84 216.514 29.16C216.487 29.4533 216.46 29.7333 216.434 30H198.954V26.36H213.154L210.754 27.44C210.754 26.32 210.527 25.3467 210.074 24.52C209.62 23.6933 208.994 23.0533 208.194 22.6C207.394 22.12 206.46 21.88 205.394 21.88C204.327 21.88 203.38 22.12 202.554 22.6C201.754 23.0533 201.127 23.7067 200.674 24.56C200.22 25.3867 199.994 26.3733 199.994 27.52V28.48C199.994 29.6533 200.247 30.6933 200.754 31.6C201.287 32.48 202.02 33.16 202.954 33.64C203.914 34.0933 205.034 34.32 206.314 34.32C207.46 34.32 208.46 34.1467 209.314 33.8C210.194 33.4533 210.994 32.9333 211.714 32.24L215.034 35.84C214.047 36.96 212.807 37.8267 211.314 38.44C209.82 39.0267 208.1 39.32 206.154 39.32ZM231.108 39.32C228.788 39.32 226.721 38.8533 224.908 37.92C223.095 36.96 221.668 35.64 220.628 33.96C219.615 32.28 219.108 30.3733 219.108 28.24C219.108 26.08 219.615 24.1733 220.628 22.52C221.668 20.84 223.095 19.5333 224.908 18.6C226.721 17.64 228.788 17.16 231.108 17.16C233.375 17.16 235.348 17.64 237.028 18.6C238.708 19.5333 239.948 20.88 240.748 22.64L235.908 25.24C235.348 24.2267 234.641 23.48 233.788 23C232.961 22.52 232.055 22.28 231.068 22.28C230.001 22.28 229.041 22.52 228.188 23C227.335 23.48 226.655 24.16 226.148 25.04C225.668 25.92 225.428 26.9867 225.428 28.24C225.428 29.4933 225.668 30.56 226.148 31.44C226.655 32.32 227.335 33 228.188 33.48C229.041 33.96 230.001 34.2 231.068 34.2C232.055 34.2 232.961 33.9733 233.788 33.52C234.641 33.04 235.348 32.28 235.908 31.24L240.748 33.88C239.948 35.6133 238.708 36.96 237.028 37.92C235.348 38.8533 233.375 39.32 231.108 39.32ZM253.453 39.32C250.92 39.32 248.947 38.68 247.533 37.4C246.12 36.0933 245.413 34.16 245.413 31.6V12.72H251.653V31.52C251.653 32.4267 251.893 33.1333 252.373 33.64C252.853 34.12 253.507 34.36 254.333 34.36C255.32 34.36 256.16 34.0933 256.853 33.56L258.533 37.96C257.893 38.4133 257.12 38.76 256.213 39C255.333 39.2133 254.413 39.32 253.453 39.32ZM242.093 22.76V17.96H257.013V22.76H242.093Z"/>
</mask>
<path d="M58.12 32.6L57.76 25.12L71.16 11H78.36L66.28 24L62.68 27.84L58.12 32.6ZM52.32 39V11H58.76V39H52.32ZM71.48 39L61.52 26.8L65.76 22.2L79.04 39H71.48ZM101.129 11H107.609V39H101.129V11ZM88.4094 39H81.9294V11H88.4094V39ZM101.609 27.52H87.9294V22.04H101.609V27.52ZM124.034 39.32C121.741 39.32 119.701 38.84 117.914 37.88C116.154 36.92 114.754 35.6133 113.714 33.96C112.701 32.28 112.194 30.3733 112.194 28.24C112.194 26.08 112.701 24.1733 113.714 22.52C114.754 20.84 116.154 19.5333 117.914 18.6C119.701 17.64 121.741 17.16 124.034 17.16C126.301 17.16 128.327 17.64 130.114 18.6C131.901 19.5333 133.301 20.8267 134.314 22.48C135.327 24.1333 135.834 26.0533 135.834 28.24C135.834 30.3733 135.327 32.28 134.314 33.96C133.301 35.6133 131.901 36.92 130.114 37.88C128.327 38.84 126.301 39.32 124.034 39.32ZM124.034 34.2C125.074 34.2 126.007 33.96 126.834 33.48C127.661 33 128.314 32.32 128.794 31.44C129.274 30.5333 129.514 29.4667 129.514 28.24C129.514 26.9867 129.274 25.92 128.794 25.04C128.314 24.16 127.661 23.48 126.834 23C126.007 22.52 125.074 22.28 124.034 22.28C122.994 22.28 122.061 22.52 121.234 23C120.407 23.48 119.741 24.16 119.234 25.04C118.754 25.92 118.514 26.9867 118.514 28.24C118.514 29.4667 118.754 30.5333 119.234 31.44C119.741 32.32 120.407 33 121.234 33.48C122.061 33.96 122.994 34.2 124.034 34.2ZM153.085 17.16C154.792 17.16 156.312 17.5067 157.645 18.2C159.005 18.8667 160.072 19.9067 160.845 21.32C161.618 22.7067 162.005 24.4933 162.005 26.68V39H155.765V27.64C155.765 25.9067 155.378 24.6267 154.605 23.8C153.858 22.9733 152.792 22.56 151.405 22.56C150.418 22.56 149.525 22.7733 148.725 23.2C147.952 23.6 147.338 24.2267 146.885 25.08C146.458 25.9333 146.245 27.0267 146.245 28.36V39H140.005V17.48H145.965V23.44L144.845 21.64C145.618 20.2 146.725 19.0933 148.165 18.32C149.605 17.5467 151.245 17.16 153.085 17.16ZM180.741 17.16C182.448 17.16 183.968 17.5067 185.301 18.2C186.661 18.8667 187.728 19.9067 188.501 21.32C189.275 22.7067 189.661 24.4933 189.661 26.68V39H183.421V27.64C183.421 25.9067 183.035 24.6267 182.261 23.8C181.515 22.9733 180.448 22.56 179.061 22.56C178.075 22.56 177.181 22.7733 176.381 23.2C175.608 23.6 174.995 24.2267 174.541 25.08C174.115 25.9333 173.901 27.0267 173.901 28.36V39H167.661V17.48H173.621V23.44L172.501 21.64C173.275 20.2 174.381 19.0933 175.821 18.32C177.261 17.5467 178.901 17.16 180.741 17.16ZM206.154 39.32C203.7 39.32 201.54 38.84 199.674 37.88C197.834 36.92 196.407 35.6133 195.394 33.96C194.38 32.28 193.874 30.3733 193.874 28.24C193.874 26.08 194.367 24.1733 195.354 22.52C196.367 20.84 197.74 19.5333 199.474 18.6C201.207 17.64 203.167 17.16 205.354 17.16C207.46 17.16 209.354 17.6133 211.034 18.52C212.74 19.4 214.087 20.68 215.074 22.36C216.06 24.0133 216.554 26 216.554 28.32C216.554 28.56 216.54 28.84 216.514 29.16C216.487 29.4533 216.46 29.7333 216.434 30H198.954V26.36H213.154L210.754 27.44C210.754 26.32 210.527 25.3467 210.074 24.52C209.62 23.6933 208.994 23.0533 208.194 22.6C207.394 22.12 206.46 21.88 205.394 21.88C204.327 21.88 203.38 22.12 202.554 22.6C201.754 23.0533 201.127 23.7067 200.674 24.56C200.22 25.3867 199.994 26.3733 199.994 27.52V28.48C199.994 29.6533 200.247 30.6933 200.754 31.6C201.287 32.48 202.02 33.16 202.954 33.64C203.914 34.0933 205.034 34.32 206.314 34.32C207.46 34.32 208.46 34.1467 209.314 33.8C210.194 33.4533 210.994 32.9333 211.714 32.24L215.034 35.84C214.047 36.96 212.807 37.8267 211.314 38.44C209.82 39.0267 208.1 39.32 206.154 39.32ZM231.108 39.32C228.788 39.32 226.721 38.8533 224.908 37.92C223.095 36.96 221.668 35.64 220.628 33.96C219.615 32.28 219.108 30.3733 219.108 28.24C219.108 26.08 219.615 24.1733 220.628 22.52C221.668 20.84 223.095 19.5333 224.908 18.6C226.721 17.64 228.788 17.16 231.108 17.16C233.375 17.16 235.348 17.64 237.028 18.6C238.708 19.5333 239.948 20.88 240.748 22.64L235.908 25.24C235.348 24.2267 234.641 23.48 233.788 23C232.961 22.52 232.055 22.28 231.068 22.28C230.001 22.28 229.041 22.52 228.188 23C227.335 23.48 226.655 24.16 226.148 25.04C225.668 25.92 225.428 26.9867 225.428 28.24C225.428 29.4933 225.668 30.56 226.148 31.44C226.655 32.32 227.335 33 228.188 33.48C229.041 33.96 230.001 34.2 231.068 34.2C232.055 34.2 232.961 33.9733 233.788 33.52C234.641 33.04 235.348 32.28 235.908 31.24L240.748 33.88C239.948 35.6133 238.708 36.96 237.028 37.92C235.348 38.8533 233.375 39.32 231.108 39.32ZM253.453 39.32C250.92 39.32 248.947 38.68 247.533 37.4C246.12 36.0933 245.413 34.16 245.413 31.6V12.72H251.653V31.52C251.653 32.4267 251.893 33.1333 252.373 33.64C252.853 34.12 253.507 34.36 254.333 34.36C255.32 34.36 256.16 34.0933 256.853 33.56L258.533 37.96C257.893 38.4133 257.12 38.76 256.213 39C255.333 39.2133 254.413 39.32 253.453 39.32ZM242.093 22.76V17.96H257.013V22.76H242.093Z" fill="#439943"/>
<path d="M58.12 32.6L57.1212 32.6481L57.233 34.9715L58.8421 33.2918L58.12 32.6ZM57.76 25.12L57.0346 24.4316L56.7406 24.7414L56.7612 25.1681L57.76 25.12ZM71.16 11V10H70.7304L70.4346 10.3116L71.16 11ZM78.36 11L79.0926 11.6807L80.6543 10H78.36V11ZM66.28 24L67.0095 24.6839L67.0126 24.6807L66.28 24ZM62.68 27.84L63.4022 28.5318L63.4095 28.5239L62.68 27.84ZM52.32 39H51.32V40H52.32V39ZM52.32 11V10H51.32V11H52.32ZM58.76 11H59.76V10H58.76V11ZM58.76 39V40H59.76V39H58.76ZM71.48 39L70.7054 39.6324L71.0055 40H71.48V39ZM61.52 26.8L60.7847 26.1223L60.1966 26.7603L60.7454 27.4324L61.52 26.8ZM65.76 22.2L66.5445 21.5799L65.8183 20.6612L65.0247 21.5223L65.76 22.2ZM79.04 39V40H81.1052L79.8245 38.3799L79.04 39ZM59.1188 32.5519L58.7588 25.0719L56.7612 25.1681L57.1212 32.6481L59.1188 32.5519ZM58.4854 25.8084L71.8854 11.6884L70.4346 10.3116L57.0346 24.4316L58.4854 25.8084ZM71.16 12H78.36V10H71.16V12ZM77.6274 10.3193L65.5474 23.3193L67.0126 24.6807L79.0926 11.6807L77.6274 10.3193ZM65.5505 23.3161L61.9505 27.1561L63.4095 28.5239L67.0095 24.6839L65.5505 23.3161ZM61.9579 27.1482L57.3979 31.9082L58.8421 33.2918L63.4021 28.5318L61.9579 27.1482ZM53.32 39V11H51.32V39H53.32ZM52.32 12H58.76V10H52.32V12ZM57.76 11V39H59.76V11H57.76ZM58.76 38H52.32V40H58.76V38ZM72.2546 38.3676L62.2946 26.1676L60.7454 27.4324L70.7054 39.6324L72.2546 38.3676ZM62.2553 27.4777L66.4953 22.8777L65.0247 21.5223L60.7847 26.1223L62.2553 27.4777ZM64.9755 22.8201L78.2555 39.6201L79.8245 38.3799L66.5445 21.5799L64.9755 22.8201ZM79.04 38H71.48V40H79.04V38ZM101.129 11V10H100.129V11H101.129ZM107.609 11H108.609V10H107.609V11ZM107.609 39V40H108.609V39H107.609ZM101.129 39H100.129V40H101.129V39ZM88.4094 39V40H89.4094V39H88.4094ZM81.9294 39H80.9294V40H81.9294V39ZM81.9294 11V10H80.9294V11H81.9294ZM88.4094 11H89.4094V10H88.4094V11ZM101.609 27.52V28.52H102.609V27.52H101.609ZM87.9294 27.52H86.9294V28.52H87.9294V27.52ZM87.9294 22.04V21.04H86.9294V22.04H87.9294ZM101.609 22.04H102.609V21.04H101.609V22.04ZM101.129 12H107.609V10H101.129V12ZM106.609 11V39H108.609V11H106.609ZM107.609 38H101.129V40H107.609V38ZM102.129 39V11H100.129V39H102.129ZM88.4094 38H81.9294V40H88.4094V38ZM82.9294 39V11H80.9294V39H82.9294ZM81.9294 12H88.4094V10H81.9294V12ZM87.4094 11V39H89.4094V11H87.4094ZM101.609 26.52H87.9294V28.52H101.609V26.52ZM88.9294 27.52V22.04H86.9294V27.52H88.9294ZM87.9294 23.04H101.609V21.04H87.9294V23.04ZM100.609 22.04V27.52H102.609V22.04H100.609ZM117.914 37.88L117.435 38.7579L117.441 38.7609L117.914 37.88ZM113.714 33.96L112.858 34.4765L112.863 34.4845L112.868 34.4925L113.714 33.96ZM113.714 22.52L112.864 21.9936L112.861 21.9974L113.714 22.52ZM117.914 18.6L118.383 19.4835L118.387 19.4809L117.914 18.6ZM130.114 18.6L129.641 19.481L129.651 19.4863L130.114 18.6ZM134.314 33.96L135.167 34.4826L135.17 34.4765L134.314 33.96ZM130.114 37.88L129.641 36.9991L129.641 36.9991L130.114 37.88ZM126.834 33.48L127.336 34.3448L127.336 34.3448L126.834 33.48ZM128.794 31.44L129.672 31.9189L129.678 31.9079L128.794 31.44ZM128.794 25.04L127.916 25.5189L127.916 25.5189L128.794 25.04ZM126.834 23L126.332 23.8648L126.332 23.8648L126.834 23ZM121.234 23L121.736 23.8648L121.736 23.8648L121.234 23ZM119.234 25.04L118.367 24.541L118.362 24.551L118.356 24.5611L119.234 25.04ZM119.234 31.44L118.35 31.9079L118.359 31.9236L118.367 31.939L119.234 31.44ZM121.234 33.48L121.736 32.6152L121.736 32.6152L121.234 33.48ZM124.034 38.32C121.884 38.32 120.01 37.8712 118.387 36.9991L117.441 38.7609C119.391 39.8088 121.597 40.32 124.034 40.32V38.32ZM118.393 37.0021C116.779 36.1217 115.507 34.9323 114.561 33.4275L112.868 34.4925C114.001 36.2944 115.529 37.7183 117.435 38.7579L118.393 37.0021ZM114.57 33.4435C113.659 31.9329 113.194 30.2077 113.194 28.24H111.194C111.194 30.5389 111.742 32.6271 112.858 34.4765L114.57 33.4435ZM113.194 28.24C113.194 26.2428 113.66 24.5212 114.567 23.0426L112.861 21.9974C111.741 23.8255 111.194 25.9172 111.194 28.24H113.194ZM114.564 23.0464C115.51 21.5184 116.778 20.3344 118.383 19.4835L117.446 17.7165C115.53 18.7322 113.998 20.1616 112.864 21.9936L114.564 23.0464ZM118.387 19.4809C120.01 18.6088 121.884 18.16 124.034 18.16V16.16C121.597 16.16 119.391 16.6712 117.441 17.7191L118.387 19.4809ZM124.034 18.16C126.155 18.16 128.016 18.6079 129.641 19.4809L130.587 17.7191C128.639 16.6721 126.446 16.16 124.034 16.16V18.16ZM129.651 19.4863C131.284 20.3394 132.547 21.5098 133.461 23.0026L135.167 21.9574C134.055 20.1436 132.518 18.7273 130.577 17.7136L129.651 19.4863ZM133.461 23.0026C134.367 24.4793 134.834 26.2136 134.834 28.24H136.834C136.834 25.893 136.288 23.7874 135.167 21.9574L133.461 23.0026ZM134.834 28.24C134.834 30.2077 134.369 31.9329 133.458 33.4435L135.17 34.4765C136.286 32.6271 136.834 30.5389 136.834 28.24H134.834ZM133.461 33.4374C132.545 34.9328 131.279 36.1189 129.641 36.9991L130.587 38.7609C132.522 37.7211 134.057 36.2939 135.167 34.4826L133.461 33.4374ZM129.641 36.9991C128.016 37.8721 126.155 38.32 124.034 38.32V40.32C126.446 40.32 128.639 39.8079 130.587 38.7609L129.641 36.9991ZM124.034 35.2C125.234 35.2 126.344 34.9211 127.336 34.3448L126.332 32.6152C125.671 32.9989 124.914 33.2 124.034 33.2V35.2ZM127.336 34.3448C128.329 33.7684 129.109 32.9513 129.672 31.9189L127.916 30.9611C127.519 31.6887 126.993 32.2316 126.332 32.6152L127.336 34.3448ZM129.678 31.9079C130.248 30.8314 130.514 29.598 130.514 28.24H128.514C128.514 29.3353 128.3 30.2353 127.91 30.9721L129.678 31.9079ZM130.514 28.24C130.514 26.8605 130.25 25.6204 129.672 24.5611L127.916 25.5189C128.298 26.2196 128.514 27.1128 128.514 28.24H130.514ZM129.672 24.5611C129.109 23.5287 128.329 22.7116 127.336 22.1352L126.332 23.8648C126.993 24.2484 127.519 24.7913 127.916 25.5189L129.672 24.5611ZM127.336 22.1352C126.344 21.5589 125.234 21.28 124.034 21.28V23.28C124.914 23.28 125.671 23.4811 126.332 23.8648L127.336 22.1352ZM124.034 21.28C122.834 21.28 121.724 21.5589 120.732 22.1352L121.736 23.8648C122.397 23.4811 123.154 23.28 124.034 23.28V21.28ZM120.732 22.1352C119.744 22.7086 118.956 23.5191 118.367 24.541L120.101 25.539C120.526 24.8009 121.07 24.2514 121.736 23.8648L120.732 22.1352ZM118.356 24.5611C117.778 25.6204 117.514 26.8605 117.514 28.24H119.514C119.514 27.1128 119.73 26.2196 120.112 25.5189L118.356 24.5611ZM117.514 28.24C117.514 29.598 117.78 30.8314 118.35 31.9079L120.118 30.9721C119.728 30.2353 119.514 29.3353 119.514 28.24H117.514ZM118.367 31.939C118.956 32.9609 119.744 33.7714 120.732 34.3448L121.736 32.6152C121.07 32.2286 120.526 31.6791 120.101 30.941L118.367 31.939ZM120.732 34.3448C121.724 34.9211 122.834 35.2 124.034 35.2V33.2C123.154 33.2 122.397 32.9989 121.736 32.6152L120.732 34.3448ZM157.645 18.2L157.184 19.0872L157.194 19.0927L157.205 19.0979L157.645 18.2ZM160.845 21.32L159.968 21.8L159.972 21.8071L160.845 21.32ZM162.005 39V40H163.005V39H162.005ZM155.765 39H154.765V40H155.765V39ZM154.605 23.8L153.863 24.4703L153.869 24.4768L153.875 24.4832L154.605 23.8ZM148.725 23.2L149.184 24.0883L149.196 24.0824L148.725 23.2ZM146.885 25.08L146.002 24.6108L145.996 24.6217L145.991 24.6328L146.885 25.08ZM146.245 39V40H147.245V39H146.245ZM140.005 39H139.005V40H140.005V39ZM140.005 17.48V16.48H139.005V17.48H140.005ZM145.965 17.48H146.965V16.48H145.965V17.48ZM145.965 23.44L145.116 23.9683L146.965 26.94V23.44H145.965ZM144.845 21.64L143.964 21.1669L143.69 21.6768L143.996 22.1683L144.845 21.64ZM148.165 18.32L148.638 19.201L148.638 19.201L148.165 18.32ZM153.085 18.16C154.653 18.16 156.011 18.4775 157.184 19.0872L158.106 17.3128C156.612 16.5358 154.93 16.16 153.085 16.16V18.16ZM157.205 19.0979C158.367 19.6678 159.287 20.5556 159.968 21.8L161.722 20.84C160.857 19.2578 159.643 18.0655 158.085 17.3021L157.205 19.0979ZM159.972 21.8071C160.636 22.9992 161.005 24.6025 161.005 26.68H163.005C163.005 24.3841 162.6 22.4142 161.718 20.8329L159.972 21.8071ZM161.005 26.68V39H163.005V26.68H161.005ZM162.005 38H155.765V40H162.005V38ZM156.765 39V27.64H154.765V39H156.765ZM156.765 27.64C156.765 25.7838 156.354 24.2062 155.335 23.1168L153.875 24.4832C154.402 25.0472 154.765 26.0296 154.765 27.64H156.765ZM155.347 23.1297C154.366 22.0436 153 21.56 151.405 21.56V23.56C152.583 23.56 153.351 23.9031 153.863 24.4703L155.347 23.1297ZM151.405 21.56C150.269 21.56 149.212 21.807 148.254 22.3176L149.196 24.0824C149.838 23.7396 150.568 23.56 151.405 23.56V21.56ZM148.266 22.3118C147.292 22.8153 146.54 23.5986 146.002 24.6108L147.768 25.5492C148.137 24.8548 148.611 24.3847 149.184 24.0882L148.266 22.3118ZM145.991 24.6328C145.473 25.6689 145.245 26.9294 145.245 28.36H147.245C147.245 27.1239 147.444 26.1977 147.779 25.5272L145.991 24.6328ZM145.245 28.36V39H147.245V28.36H145.245ZM146.245 38H140.005V40H146.245V38ZM141.005 39V17.48H139.005V39H141.005ZM140.005 18.48H145.965V16.48H140.005V18.48ZM144.965 17.48V23.44H146.965V17.48H144.965ZM146.814 22.9117L145.694 21.1117L143.996 22.1683L145.116 23.9683L146.814 22.9117ZM145.726 22.1131C146.406 20.8462 147.371 19.8814 148.638 19.201L147.692 17.439C146.079 18.3053 144.83 19.5538 143.964 21.1669L145.726 22.1131ZM148.638 19.201C149.915 18.5152 151.389 18.16 153.085 18.16V16.16C151.101 16.16 149.295 16.5782 147.692 17.439L148.638 19.201ZM185.301 18.2L184.84 19.0872L184.85 19.0927L184.861 19.0979L185.301 18.2ZM188.501 21.32L187.624 21.8L187.628 21.8071L188.501 21.32ZM189.661 39V40H190.661V39H189.661ZM183.421 39H182.421V40H183.421V39ZM182.261 23.8L181.519 24.4703L181.525 24.4768L181.531 24.4832L182.261 23.8ZM176.381 23.2L176.841 24.0883L176.852 24.0824L176.381 23.2ZM174.541 25.08L173.658 24.6108L173.652 24.6217L173.647 24.6328L174.541 25.08ZM173.901 39V40H174.901V39H173.901ZM167.661 39H166.661V40H167.661V39ZM167.661 17.48V16.48H166.661V17.48H167.661ZM173.621 17.48H174.621V16.48H173.621V17.48ZM173.621 23.44L172.772 23.9683L174.621 26.94V23.44H173.621ZM172.501 21.64L171.62 21.1669L171.346 21.6768L171.652 22.1683L172.501 21.64ZM175.821 18.32L176.294 19.201L176.294 19.201L175.821 18.32ZM180.741 18.16C182.309 18.16 183.667 18.4775 184.84 19.0872L185.763 17.3128C184.268 16.5358 182.587 16.16 180.741 16.16V18.16ZM184.861 19.0979C186.024 19.6678 186.943 20.5556 187.624 21.8L189.379 20.84C188.513 19.2578 187.299 18.0655 185.741 17.3021L184.861 19.0979ZM187.628 21.8071C188.293 22.9992 188.661 24.6025 188.661 26.68H190.661C190.661 24.3841 190.256 22.4142 189.375 20.8329L187.628 21.8071ZM188.661 26.68V39H190.661V26.68H188.661ZM189.661 38H183.421V40H189.661V38ZM184.421 39V27.64H182.421V39H184.421ZM184.421 27.64C184.421 25.7838 184.011 24.2062 182.992 23.1168L181.531 24.4832C182.059 25.0472 182.421 26.0296 182.421 27.64H184.421ZM183.003 23.1297C182.022 22.0436 180.656 21.56 179.061 21.56V23.56C180.24 23.56 181.007 23.9031 181.519 24.4703L183.003 23.1297ZM179.061 21.56C177.925 21.56 176.868 21.807 175.911 22.3176L176.852 24.0824C177.494 23.7396 178.224 23.56 179.061 23.56V21.56ZM175.922 22.3118C174.948 22.8153 174.196 23.5986 173.658 24.6108L175.424 25.5492C175.793 24.8548 176.268 24.3847 176.841 24.0882L175.922 22.3118ZM173.647 24.6328C173.129 25.6689 172.901 26.9294 172.901 28.36H174.901C174.901 27.1239 175.1 26.1977 175.436 25.5272L173.647 24.6328ZM172.901 28.36V39H174.901V28.36H172.901ZM173.901 38H167.661V40H173.901V38ZM168.661 39V17.48H166.661V39H168.661ZM167.661 18.48H173.621V16.48H167.661V18.48ZM172.621 17.48V23.44H174.621V17.48H172.621ZM174.47 22.9117L173.35 21.1117L171.652 22.1683L172.772 23.9683L174.47 22.9117ZM173.382 22.1131C174.063 20.8462 175.027 19.8814 176.294 19.201L175.348 17.439C173.735 18.3053 172.487 19.5538 171.62 21.1669L173.382 22.1131ZM176.294 19.201C177.571 18.5152 179.045 18.16 180.741 18.16V16.16C178.757 16.16 176.951 16.5782 175.348 17.439L176.294 19.201ZM199.674 37.88L199.211 38.7666L199.216 38.7693L199.674 37.88ZM195.394 33.96L194.537 34.4765L194.541 34.4826L195.394 33.96ZM195.354 22.52L194.497 22.0035L194.495 22.0075L195.354 22.52ZM199.474 18.6L199.948 19.4805L199.958 19.4748L199.474 18.6ZM211.034 18.52L210.559 19.4L210.567 19.4045L210.575 19.4088L211.034 18.52ZM215.074 22.36L214.211 22.8664L214.215 22.8725L215.074 22.36ZM216.514 29.16L217.51 29.2505L217.51 29.243L216.514 29.16ZM216.434 30V31H217.339L217.429 30.0995L216.434 30ZM198.954 30H197.954V31H198.954V30ZM198.954 26.36V25.36H197.954V26.36H198.954ZM213.154 26.36L213.564 27.2719L213.154 25.36V26.36ZM210.754 27.44H209.754V28.9866L211.164 28.3519L210.754 27.44ZM210.074 24.52L209.197 25.0008L209.197 25.0008L210.074 24.52ZM208.194 22.6L207.679 23.4575L207.69 23.4639L207.701 23.47L208.194 22.6ZM202.554 22.6L203.047 23.4701L203.056 23.4648L202.554 22.6ZM200.674 24.56L201.551 25.0409L201.557 25.0292L200.674 24.56ZM200.754 31.6L199.881 32.0878L199.889 32.1032L199.899 32.1183L200.754 31.6ZM202.954 33.64L202.496 34.5293L202.511 34.537L202.527 34.5442L202.954 33.64ZM209.314 33.8L208.947 32.8695L208.937 32.8735L209.314 33.8ZM211.714 32.24L212.449 31.5621L211.756 30.8109L211.02 31.5197L211.714 32.24ZM215.034 35.84L215.784 36.501L216.38 35.8247L215.769 35.1621L215.034 35.84ZM211.314 38.44L211.679 39.3708L211.687 39.3679L211.694 39.365L211.314 38.44ZM206.154 38.32C203.833 38.32 201.834 37.8666 200.131 36.9907L199.216 38.7693C201.247 39.8134 203.568 40.32 206.154 40.32V38.32ZM200.136 36.9934C198.445 36.1111 197.158 34.9255 196.246 33.4374L194.541 34.4826C195.656 36.3012 197.222 37.7289 199.211 38.7666L200.136 36.9934ZM196.25 33.4435C195.339 31.9329 194.874 30.2077 194.874 28.24H192.874C192.874 30.5389 193.422 32.6271 194.537 34.4765L196.25 33.4435ZM194.874 28.24C194.874 26.2379 195.329 24.5126 196.212 23.0325L194.495 22.0075C193.405 23.8341 192.874 25.9221 192.874 28.24H194.874ZM196.21 23.0365C197.131 21.5104 198.372 20.3292 199.948 19.4805L199 17.7195C197.109 18.7375 195.604 20.1696 194.497 22.0035L196.21 23.0365ZM199.958 19.4748C201.528 18.6052 203.319 18.16 205.354 18.16V16.16C203.016 16.16 200.886 16.6748 198.989 17.7252L199.958 19.4748ZM205.354 18.16C207.312 18.16 209.039 18.58 210.559 19.4L211.509 17.64C209.668 16.6466 207.609 16.16 205.354 16.16V18.16ZM210.575 19.4088C212.111 20.2008 213.319 21.347 214.211 22.8664L215.936 21.8536C214.855 20.013 213.369 18.5992 211.492 17.6312L210.575 19.4088ZM214.215 22.8725C215.092 24.3418 215.554 26.1434 215.554 28.32H217.554C217.554 25.8566 217.029 23.6848 215.932 21.8475L214.215 22.8725ZM215.554 28.32C215.554 28.5248 215.542 28.776 215.517 29.077L217.51 29.243C217.539 28.904 217.554 28.5952 217.554 28.32H215.554ZM215.518 29.0695C215.491 29.3601 215.465 29.6371 215.439 29.9005L217.429 30.0995C217.456 29.8296 217.483 29.5466 217.51 29.2505L215.518 29.0695ZM216.434 29H198.954V31H216.434V29ZM199.954 30V26.36H197.954V30H199.954ZM198.954 27.36H213.154V25.36H198.954V27.36ZM212.743 25.4481L210.343 26.5281L211.164 28.3519L213.564 27.2719L212.743 25.4481ZM211.754 27.44C211.754 26.1835 211.499 25.0386 210.951 24.0392L209.197 25.0008C209.556 25.6547 209.754 26.4565 209.754 27.44H211.754ZM210.951 24.0392C210.41 23.054 209.653 22.2773 208.687 21.73L207.701 23.47C208.335 23.8294 208.831 24.3327 209.197 25.0008L210.951 24.0392ZM208.708 21.7425C207.732 21.1565 206.615 20.88 205.394 20.88V22.88C206.306 22.88 207.056 23.0835 207.679 23.4575L208.708 21.7425ZM205.394 20.88C204.172 20.88 203.048 21.1567 202.052 21.7352L203.056 23.4648C203.713 23.0833 204.483 22.88 205.394 22.88V20.88ZM202.061 21.73C201.087 22.282 200.328 23.0785 199.791 24.0908L201.557 25.0292C201.926 24.3349 202.421 23.8247 203.047 23.47L202.061 21.73ZM199.797 24.0792C199.247 25.0819 198.994 26.2413 198.994 27.52H200.994C200.994 26.5053 201.194 25.6914 201.551 25.0408L199.797 24.0792ZM198.994 27.52V28.48H200.994V27.52H198.994ZM198.994 28.48C198.994 29.8016 199.28 31.0136 199.881 32.0878L201.627 31.1122C201.214 30.3731 200.994 29.5051 200.994 28.48H198.994ZM199.899 32.1183C200.53 33.1596 201.402 33.9665 202.496 34.5293L203.411 32.7507C202.639 32.3535 202.044 31.8004 201.609 31.0817L199.899 32.1183ZM202.527 34.5442C203.645 35.0723 204.916 35.32 206.314 35.32V33.32C205.152 33.32 204.183 33.1144 203.381 32.7358L202.527 34.5442ZM206.314 35.32C207.559 35.32 208.692 35.132 209.69 34.7265L208.937 32.8735C208.229 33.1613 207.362 33.32 206.314 33.32V35.32ZM209.68 34.7304C210.689 34.3331 211.599 33.7392 212.407 32.9603L211.02 31.5197C210.389 32.1275 209.699 32.5736 208.947 32.8696L209.68 34.7304ZM210.979 32.9179L214.299 36.5179L215.769 35.1621L212.449 31.5621L210.979 32.9179ZM214.283 35.179C213.406 36.1745 212.297 36.9552 210.934 37.515L211.694 39.365C213.317 38.6982 214.688 37.7455 215.784 36.501L214.283 35.179ZM210.948 37.5092C209.593 38.0415 208.001 38.32 206.154 38.32V40.32C208.2 40.32 210.048 40.0118 211.679 39.3708L210.948 37.5092ZM224.908 37.92L224.44 38.8038L224.45 38.8091L224.908 37.92ZM220.628 33.96L219.772 34.4765L219.778 34.4864L220.628 33.96ZM220.628 22.52L219.778 21.9936L219.776 21.9974L220.628 22.52ZM224.908 18.6L225.366 19.4892L225.376 19.4838L224.908 18.6ZM237.028 18.6L236.532 19.4683L236.542 19.4742L237.028 18.6ZM240.748 22.64L241.221 23.5209L242.046 23.0781L241.658 22.2262L240.748 22.64ZM235.908 25.24L235.033 25.7237L235.511 26.5886L236.381 26.1209L235.908 25.24ZM233.788 23L233.286 23.8649L233.298 23.8716L233.788 23ZM228.188 23L228.678 23.8716L228.678 23.8716L228.188 23ZM226.148 25.04L225.282 24.541L225.276 24.551L225.27 24.5611L226.148 25.04ZM226.148 31.44L225.27 31.9189L225.276 31.929L225.282 31.939L226.148 31.44ZM228.188 33.48L228.678 32.6084L228.678 32.6084L228.188 33.48ZM233.788 33.52L234.269 34.3969L234.278 34.3916L233.788 33.52ZM235.908 31.24L236.387 30.3621L235.504 29.8807L235.028 30.7659L235.908 31.24ZM240.748 33.88L241.656 34.2991L242.048 33.4499L241.227 33.0021L240.748 33.88ZM237.028 37.92L237.514 38.7942L237.524 38.7882L237.028 37.92ZM231.108 38.32C228.925 38.32 227.019 37.8819 225.366 37.0309L224.45 38.8091C226.424 39.8248 228.651 40.32 231.108 40.32V38.32ZM225.376 37.0362C223.713 36.156 222.421 34.9567 221.478 33.4336L219.778 34.4864C220.915 36.3233 222.476 37.764 224.44 38.8038L225.376 37.0362ZM221.484 33.4435C220.573 31.9329 220.108 30.2077 220.108 28.24H218.108C218.108 30.5389 218.656 32.6271 219.772 34.4765L221.484 33.4435ZM220.108 28.24C220.108 26.2428 220.574 24.5212 221.481 23.0426L219.776 21.9974C218.655 23.8255 218.108 25.9172 218.108 28.24H220.108ZM221.478 23.0464C222.42 21.5258 223.708 20.3422 225.366 19.4891L224.45 17.7109C222.481 18.7245 220.917 20.1542 219.778 21.9936L221.478 23.0464ZM225.376 19.4838C227.027 18.6096 228.93 18.16 231.108 18.16V16.16C228.647 16.16 226.416 16.6704 224.44 17.7162L225.376 19.4838ZM231.108 18.16C233.231 18.16 235.027 18.6084 236.532 19.4682L237.524 17.7318C235.669 16.6716 233.519 16.16 231.108 16.16V18.16ZM236.542 19.4742C238.034 20.3028 239.126 21.4875 239.838 23.0538L241.658 22.2262C240.77 20.2725 239.382 18.7639 237.514 17.7258L236.542 19.4742ZM240.275 21.7591L235.435 24.3591L236.381 26.1209L241.221 23.5209L240.275 21.7591ZM236.783 24.7563C236.15 23.6105 235.321 22.7149 234.278 22.1284L233.298 23.8716C233.962 24.2451 234.546 24.8429 235.033 25.7237L236.783 24.7563ZM234.29 22.1352C233.306 21.5637 232.225 21.28 231.068 21.28V23.28C231.884 23.28 232.617 23.4763 233.286 23.8648L234.29 22.1352ZM231.068 21.28C229.846 21.28 228.714 21.5568 227.698 22.1284L228.678 23.8716C229.369 23.4832 230.157 23.28 231.068 23.28V21.28ZM227.698 22.1284C226.682 22.6999 225.874 23.5113 225.282 24.541L227.015 25.539C227.435 24.8087 227.988 24.2601 228.678 23.8716L227.698 22.1284ZM225.27 24.5611C224.692 25.6204 224.428 26.8605 224.428 28.24H226.428C226.428 27.1128 226.644 26.2196 227.026 25.5189L225.27 24.5611ZM224.428 28.24C224.428 29.6195 224.692 30.8596 225.27 31.9189L227.026 30.9611C226.644 30.2604 226.428 29.3672 226.428 28.24H224.428ZM225.282 31.939C225.874 32.9687 226.682 33.7801 227.698 34.3516L228.678 32.6084C227.988 32.2199 227.435 31.6713 227.015 30.941L225.282 31.939ZM227.698 34.3516C228.714 34.9232 229.846 35.2 231.068 35.2V33.2C230.157 33.2 229.369 32.9968 228.678 32.6084L227.698 34.3516ZM231.068 35.2C232.215 35.2 233.288 34.9348 234.269 34.3968L233.307 32.6432C232.635 33.0119 231.895 33.2 231.068 33.2V35.2ZM234.278 34.3916C235.328 33.8011 236.157 32.8862 236.789 31.7141L235.028 30.7659C234.539 31.6738 233.955 32.2789 233.298 32.6484L234.278 34.3916ZM235.429 32.1179L240.269 34.7579L241.227 33.0021L236.387 30.3621L235.429 32.1179ZM239.84 33.4609C239.129 35.0026 238.034 36.1935 236.532 37.0518L237.524 38.7882C239.382 37.7265 240.768 36.224 241.656 34.2991L239.84 33.4609ZM236.542 37.0458C235.036 37.883 233.235 38.32 231.108 38.32V40.32C233.514 40.32 235.661 39.8237 237.514 38.7942L236.542 37.0458ZM247.533 37.4L246.855 38.1343L246.862 38.1412L247.533 37.4ZM245.413 12.72V11.72H244.413V12.72H245.413ZM251.653 12.72H252.653V11.72H251.653V12.72ZM252.373 33.64L251.647 34.3277L251.657 34.3376L251.666 34.3471L252.373 33.64ZM256.853 33.56L257.788 33.2033L257.308 31.9483L256.244 32.7674L256.853 33.56ZM258.533 37.96L259.111 38.776L259.744 38.3278L259.468 37.6033L258.533 37.96ZM256.213 39L256.449 39.9719L256.459 39.9694L256.469 39.9667L256.213 39ZM242.093 22.76H241.093V23.76H242.093V22.76ZM242.093 17.96V16.96H241.093V17.96H242.093ZM257.013 17.96H258.013V16.96H257.013V17.96ZM257.013 22.76V23.76H258.013V22.76H257.013ZM253.453 38.32C251.085 38.32 249.381 37.7238 248.205 36.6588L246.862 38.1412C248.513 39.6362 250.755 40.32 253.453 40.32V38.32ZM248.212 36.6657C247.065 35.6051 246.413 33.9775 246.413 31.6H244.413C244.413 34.3425 245.175 36.5816 246.855 38.1343L248.212 36.6657ZM246.413 31.6V12.72H244.413V31.6H246.413ZM245.413 13.72H251.653V11.72H245.413V13.72ZM250.653 12.72V31.52H252.653V12.72H250.653ZM250.653 31.52C250.653 32.6034 250.944 33.5849 251.647 34.3277L253.099 32.9523C252.843 32.6818 252.653 32.2499 252.653 31.52H250.653ZM251.666 34.3471C252.373 35.0541 253.303 35.36 254.333 35.36V33.36C253.71 33.36 253.334 33.1859 253.081 32.9329L251.666 34.3471ZM254.333 35.36C255.511 35.36 256.573 35.0375 257.463 34.3526L256.244 32.7674C255.747 33.1492 255.129 33.36 254.333 33.36V35.36ZM255.919 33.9167L257.599 38.3167L259.468 37.6033L257.788 33.2033L255.919 33.9167ZM257.955 37.144C257.43 37.5162 256.771 37.818 255.958 38.0333L256.469 39.9667C257.469 39.702 258.357 39.3105 259.111 38.776L257.955 37.144ZM255.978 38.0281C255.179 38.2217 254.339 38.32 253.453 38.32V40.32C254.488 40.32 255.487 40.205 256.449 39.9719L255.978 38.0281ZM243.093 22.76V17.96H241.093V22.76H243.093ZM242.093 18.96H257.013V16.96H242.093V18.96ZM256.013 17.96V22.76H258.013V17.96H256.013ZM257.013 21.76H242.093V23.76H257.013V21.76Z" fill="#527D53" mask="url(#path-1-outside-1_35_520)"/>
</g>
<g filter="url(#filter1_d_35_520)">
<mask id="path-3-outside-2_35_520" maskUnits="userSpaceOnUse" x="16" y="22" width="8" height="8" fill="black">
<rect fill="white" x="16" y="22" width="8" height="8"/>
<path d="M17.7845 23.7505L17.7565 23.7765C17.2736 24.2574 17.0015 24.9103 17 25.5918C16.9985 26.2733 17.2677 26.9275 17.7485 27.4105L17.7765 27.4385C18.7765 28.4445 20.4045 28.4485 21.4105 27.4465L21.4385 27.4185C22.4445 26.4185 22.4485 24.7905 21.4465 23.7845L21.4185 23.7565C20.9376 23.2736 20.2846 23.0015 19.6031 23C18.9217 22.9985 18.2675 23.2677 17.7845 23.7485"/>
</mask>
<path d="M17.7845 23.7505L17.7565 23.7765C17.2736 24.2574 17.0015 24.9103 17 25.5918C16.9985 26.2733 17.2677 26.9275 17.7485 27.4105L17.7765 27.4385C18.7765 28.4445 20.4045 28.4485 21.4105 27.4465L21.4385 27.4185C22.4445 26.4185 22.4485 24.7905 21.4465 23.7845L21.4185 23.7565C20.9376 23.2736 20.2846 23.0015 19.6031 23C18.9217 22.9985 18.2675 23.2677 17.7845 23.7485" fill="#439943"/>
<path d="M17.7565 23.7765L17.076 23.0437L17.0632 23.0556L17.0508 23.0679L17.7565 23.7765ZM17.7485 27.4105L17.0397 28.1159L17.0414 28.1176L17.7485 27.4105ZM17.7765 27.4385L18.4857 26.7335L18.4836 26.7314L17.7765 27.4385ZM21.4105 27.4465L22.1162 28.155L22.1176 28.1536L21.4105 27.4465ZM21.4385 27.4185L20.7335 26.7093L20.7314 26.7114L21.4385 27.4185ZM21.4465 23.7845L22.155 23.0788L22.1536 23.0774L21.4465 23.7845ZM21.4185 23.7565L20.7099 24.4621L20.7114 24.4636L21.4185 23.7565ZM17.104 23.0177L17.076 23.0437L18.4369 24.5093L18.4649 24.4833L17.104 23.0177ZM17.0508 23.0679C16.3801 23.7359 16.0021 24.643 16 25.5896L18 25.594C18.0009 25.1777 18.1671 24.7788 18.4621 24.485L17.0508 23.0679ZM16 25.5896C15.9979 26.5363 16.3719 27.445 17.0397 28.1159L18.4572 26.705C18.1636 26.41 17.9991 26.0103 18 25.594L16 25.5896ZM17.0414 28.1176L17.0694 28.1456L18.4836 26.7314L18.4556 26.7034L17.0414 28.1176ZM17.0673 28.1435C18.4572 29.5417 20.7189 29.5467 22.1162 28.155L20.7048 26.738C20.0901 27.3502 19.0958 27.3472 18.4857 26.7335L17.0673 28.1435ZM22.1176 28.1536L22.1456 28.1256L20.7314 26.7114L20.7034 26.7394L22.1176 28.1536ZM22.1435 28.1277C23.5417 26.7378 23.5467 24.4761 22.155 23.0788L20.738 24.4902C21.3502 25.1049 21.3472 26.0992 20.7335 26.7093L22.1435 28.1277ZM22.1536 23.0774L22.1256 23.0494L20.7114 24.4636L20.7394 24.4916L22.1536 23.0774ZM22.127 23.0508C21.459 22.3801 20.552 22.0021 19.6053 22L19.6009 24C20.0172 24.0009 20.4161 24.1671 20.7099 24.4621L22.127 23.0508ZM19.6053 22C18.6587 21.9979 17.75 22.3719 17.079 23.0397L18.4899 24.4572C18.785 24.1636 19.1846 23.9991 19.6009 24L19.6053 22Z" fill="#527D53" mask="url(#path-3-outside-2_35_520)"/>
<path d="M19.1562 12.6471L18.8034 12.293L18.4492 12.6457L15.6972 15.3857L15.3603 15.7211L15.3782 15.741L9.222 21.8653V21.8559L8.36949 22.7034L5.64749 25.4094L5.29185 25.763L5.33356 25.8047L5.324 25.8161L5.64592 26.139L8.33673 28.8378L8.33792 28.839L18.3587 38.9578L18.7641 39.3672L19.1123 38.9082L18.714 38.606C19.1123 38.9082 19.1125 38.908 19.1126 38.9078L19.1129 38.9074L19.1138 38.9063L19.116 38.9033L19.1231 38.8938C19.1256 38.8904 19.1285 38.8864 19.1318 38.8819C19.1361 38.876 19.1411 38.8691 19.1466 38.8614C19.1662 38.834 19.1935 38.795 19.2268 38.7454C19.2931 38.6463 19.3835 38.5042 19.4834 38.3269C19.6824 37.9741 19.9247 37.4728 20.0892 36.8866C20.4197 35.7087 20.4443 34.1309 19.1083 32.7892L12.1268 25.7715L18.7585 19.1615L22.1134 22.5345C22.1135 22.5346 22.1135 22.5346 22.1135 22.5346C22.9543 23.3802 23.7697 23.8329 24.5406 24.0004C25.3146 24.1685 25.9992 24.0394 26.5576 23.7976C27.1102 23.5584 27.5402 23.2092 27.8284 22.9273C27.9737 22.7851 28.0863 22.6568 28.1637 22.5624C28.2024 22.5152 28.2326 22.4761 28.2539 22.4478C28.2645 22.4336 28.273 22.4221 28.2791 22.4135L28.2867 22.4029L28.2892 22.3993L28.2902 22.3979L28.2906 22.3974C28.2907 22.3971 28.2909 22.3969 27.88 22.112L28.2909 22.3969L28.5284 22.0544L28.2342 21.7591L19.1562 12.6471ZM23.9474 29.0475C23.9472 29.0476 23.9471 29.0478 24.23 29.46L23.9471 29.0478L23.452 29.3875L23.8758 29.8129L32.9058 38.8769L33.2587 39.2311L33.6129 38.8782L46.3369 26.2022L46.6581 25.8823L46.6395 25.8596L46.7064 25.7928L46.3543 25.4392L33.6823 12.7132L33.2786 12.3078L32.9309 12.7622L33.328 13.066C32.9309 12.7622 32.9308 12.7623 32.9306 12.7625L32.9303 12.7629L32.9295 12.764L32.9273 12.7669L32.9204 12.7762C32.9147 12.7838 32.9069 12.7943 32.8973 12.8076C32.878 12.8343 32.8512 12.8722 32.8185 12.9203C32.7533 13.0166 32.6643 13.1545 32.5655 13.3265C32.3689 13.6687 32.1282 14.1545 31.961 14.7212C31.6258 15.8569 31.5729 17.3882 32.8516 18.6728L39.9791 25.8345L33.3653 32.423L30.2922 29.3391L30.2921 29.339C28.9053 27.9477 27.2813 27.8901 26.0541 28.164C25.444 28.3002 24.9219 28.519 24.5538 28.7021C24.3689 28.794 24.2208 28.8781 24.1173 28.9401C24.0655 28.9712 24.0248 28.9968 23.9961 29.0153C23.9818 29.0246 23.9705 29.032 23.9622 29.0375L23.9523 29.0442L23.9491 29.0464L23.9479 29.0472L23.9474 29.0475Z" fill="#439943" stroke="#527D53"/>
<mask id="path-6-outside-3_35_520" maskUnits="userSpaceOnUse" x="29.7325" y="22.1945" width="8" height="8" fill="black">
<rect fill="white" x="29.7325" y="22.1945" width="8" height="8"/>
<path d="M31.516 23.946L31.488 23.972C31.0054 24.4532 30.7337 25.1063 30.7325 25.7878C30.7314 26.4692 31.001 27.1233 31.482 27.606L31.508 27.634C31.9892 28.117 32.6426 28.3891 33.3244 28.3906C34.0062 28.3921 34.6607 28.1229 35.144 27.642L35.17 27.614C36.176 26.614 36.18 24.986 35.178 23.98L35.152 23.952C34.9139 23.7126 34.6309 23.5225 34.3192 23.3925C34.0076 23.2625 33.6734 23.1953 33.3357 23.1945C32.998 23.1938 32.6635 23.2596 32.3513 23.3882C32.039 23.5168 31.7552 23.7057 31.516 23.944"/>
</mask>
<path d="M31.516 23.946L31.488 23.972C31.0054 24.4532 30.7337 25.1063 30.7325 25.7878C30.7314 26.4692 31.001 27.1233 31.482 27.606L31.508 27.634C31.9892 28.117 32.6426 28.3891 33.3244 28.3906C34.0062 28.3921 34.6607 28.1229 35.144 27.642L35.17 27.614C36.176 26.614 36.18 24.986 35.178 23.98L35.152 23.952C34.9139 23.7126 34.6309 23.5225 34.3192 23.3925C34.0076 23.2625 33.6734 23.1953 33.3357 23.1945C32.998 23.1938 32.6635 23.2596 32.3513 23.3882C32.039 23.5168 31.7552 23.7057 31.516 23.944" fill="#439943"/>
<path d="M31.488 23.972L30.8076 23.2392L30.7945 23.2513L30.782 23.2638L31.488 23.972ZM31.482 27.606L32.2148 26.9256L32.2028 26.9126L32.1904 26.9002L31.482 27.606ZM31.508 27.634L30.7752 28.3144L30.7872 28.3273L30.7996 28.3398L31.508 27.634ZM35.144 27.642L35.8493 28.3509L35.8634 28.3369L35.8769 28.3224L35.144 27.642ZM35.17 27.614L34.465 26.9048L34.4508 26.9189L34.4372 26.9336L35.17 27.614ZM35.178 23.98L34.4452 24.6605L34.4572 24.6733L34.4695 24.6857L35.178 23.98ZM35.152 23.952L35.8848 23.2715L35.8731 23.2589L35.861 23.2467L35.152 23.952ZM30.8356 23.2132L30.8076 23.2392L32.1685 24.7048L32.1965 24.6788L30.8356 23.2132ZM30.782 23.2638C30.1116 23.9322 29.7341 24.8395 29.7325 25.7861L31.7325 25.7894C31.7332 25.3731 31.8992 24.9741 32.1941 24.6802L30.782 23.2638ZM29.7325 25.7861C29.731 26.7327 30.1055 27.6413 30.7736 28.3118L32.1904 26.9002C31.8965 26.6053 31.7319 26.2057 31.7325 25.7894L29.7325 25.7861ZM30.7492 28.2864L30.7752 28.3144L32.2408 26.9536L32.2148 26.9256L30.7492 28.2864ZM30.7996 28.3398C31.468 29.0106 32.3753 29.3886 33.3222 29.3906L33.3266 27.3906C32.9098 27.3897 32.5105 27.2234 32.2164 26.9282L30.7996 28.3398ZM33.3222 29.3906C34.2691 29.3927 35.178 29.0188 35.8493 28.3509L34.4387 26.9331C34.1433 27.227 33.7433 27.3916 33.3266 27.3906L33.3222 29.3906ZM35.8769 28.3224L35.9028 28.2944L34.4372 26.9336L34.4112 26.9616L35.8769 28.3224ZM35.875 28.3232C37.2733 26.9333 37.2783 24.6716 35.8865 23.2743L34.4695 24.6857C35.0818 25.3004 35.0788 26.2947 34.465 26.9048L35.875 28.3232ZM35.9108 23.2995L35.8848 23.2715L34.4192 24.6325L34.4452 24.6605L35.9108 23.2995ZM35.861 23.2467C35.5302 22.9142 35.1371 22.6501 34.7041 22.4696L33.9343 24.3155C34.1247 24.3949 34.2976 24.511 34.4431 24.6573L35.861 23.2467ZM34.7041 22.4696C34.2712 22.289 33.8069 22.1956 33.3379 22.1945L33.3335 24.1945C33.5398 24.195 33.7439 24.2361 33.9343 24.3155L34.7041 22.4696ZM33.3379 22.1945C32.8688 22.1935 32.4041 22.2849 31.9704 22.4635L32.7321 24.3128C32.9228 24.2343 33.1272 24.1941 33.3335 24.1945L33.3379 22.1945ZM31.9704 22.4635C31.5367 22.6422 31.1425 22.9045 30.8102 23.2356L32.2219 24.6524C32.368 24.5068 32.5414 24.3914 32.7321 24.3128L31.9704 22.4635Z" fill="#527D53" mask="url(#path-6-outside-3_35_520)"/>
</g>
<defs>
<filter id="filter0_d_35_520" x="48.32" y="11" width="214.213" height="36.32" filterUnits="userSpaceOnUse" color-interpolation-filters="sRGB">
<feFlood flood-opacity="0" result="BackgroundImageFix"/>
<feColorMatrix in="SourceAlpha" type="matrix" values="0 0 0 0 0 0 0 0 0 0 0 0 0 0 0 0 0 0 127 0" result="hardAlpha"/>
<feOffset dy="4"/>
<feGaussianBlur stdDeviation="2"/>
<feComposite in2="hardAlpha" operator="out"/>
<feColorMatrix type="matrix" values="0 0 0 0 0 0 0 0 0 0 0 0 0 0 0 0 0 0 0.25 0"/>
<feBlend mode="normal" in2="BackgroundImageFix" result="effect1_dropShadow_35_520"/>
<feBlend mode="normal" in="SourceGraphic" in2="effect1_dropShadow_35_520" result="shape"/>
</filter>
<filter id="filter1_d_35_520" x="0.583679" y="11.5495" width="50.829" height="36.5789" filterUnits="userSpaceOnUse" color-interpolation-filters="sRGB">
<feFlood flood-opacity="0" result="BackgroundImageFix"/>
<feColorMatrix in="SourceAlpha" type="matrix" values="0 0 0 0 0 0 0 0 0 0 0 0 0 0 0 0 0 0 127 0" result="hardAlpha"/>
<feOffset dy="4"/>
<feGaussianBlur stdDeviation="2"/>
<feComposite in2="hardAlpha" operator="out"/>
<feColorMatrix type="matrix" values="0 0 0 0 0 0 0 0 0 0 0 0 0 0 0 0 0 0 0.25 0"/>
<feBlend mode="normal" in2="BackgroundImageFix" result="effect1_dropShadow_35_520"/>
<feBlend mode="normal" in="SourceGraphic" in2="effect1_dropShadow_35_520" result="shape"/>
</filter>
</defs>
</svg>
