<svg width="265" height="57" viewBox="0 0 265 57" fill="none" xmlns="http://www.w3.org/2000/svg">
<mask id="path-1-outside-1_195_16" maskUnits="userSpaceOnUse" x="48" y="10" width="209" height="31" fill="black">
<rect fill="white" x="48" y="10" width="209" height="31"/>
<path d="M55.12 32.6L54.76 25.12L68.16 11H75.36L63.28 24L59.68 27.84L55.12 32.6ZM49.32 39V11H55.76V39H49.32ZM68.48 39L58.52 26.8L62.76 22.2L76.04 39H68.48ZM98.1294 39V11H104.609V39H98.1294ZM78.9294 39V11H85.4094V39H78.9294ZM84.9294 27.52V22.04H98.6094V27.52H84.9294ZM121.034 39.32C118.741 39.32 116.701 38.84 114.914 37.88C113.154 36.92 111.754 35.6133 110.714 33.96C109.701 32.28 109.194 30.3733 109.194 28.24C109.194 26.08 109.701 24.1733 110.714 22.52C111.754 20.84 113.154 19.5333 114.914 18.6C116.701 17.64 118.741 17.16 121.034 17.16C123.301 17.16 125.327 17.64 127.114 18.6C128.901 19.5333 130.301 20.8267 131.314 22.48C132.327 24.1333 132.834 26.0533 132.834 28.24C132.834 30.3733 132.327 32.28 131.314 33.96C130.301 35.6133 128.901 36.92 127.114 37.88C125.327 38.84 123.301 39.32 121.034 39.32ZM121.034 34.2C122.074 34.2 123.007 33.96 123.834 33.48C124.661 33 125.314 32.32 125.794 31.44C126.274 30.5333 126.514 29.4667 126.514 28.24C126.514 26.9867 126.274 25.92 125.794 25.04C125.314 24.16 124.661 23.48 123.834 23C123.007 22.52 122.074 22.28 121.034 22.28C119.994 22.28 119.061 22.52 118.234 23C117.407 23.48 116.741 24.16 116.234 25.04C115.754 25.92 115.514 26.9867 115.514 28.24C115.514 29.4667 115.754 30.5333 116.234 31.44C116.741 32.32 117.407 33 118.234 33.48C119.061 33.96 119.994 34.2 121.034 34.2ZM137.005 39V17.48H142.965V23.44L141.845 21.64C142.618 20.2 143.725 19.0933 145.165 18.32C146.605 17.5467 148.245 17.16 150.085 17.16C151.792 17.16 153.312 17.5067 154.645 18.2C156.005 18.8667 157.072 19.9067 157.845 21.32C158.618 22.7067 159.005 24.4933 159.005 26.68V39H152.765V27.64C152.765 25.9067 152.378 24.6267 151.605 23.8C150.858 22.9733 149.792 22.56 148.405 22.56C147.418 22.56 146.525 22.7733 145.725 23.2C144.952 23.6 144.338 24.2267 143.885 25.08C143.458 25.9333 143.245 27.0267 143.245 28.36V39H137.005ZM164.661 39V17.48H170.621V23.44L169.501 21.64C170.275 20.2 171.381 19.0933 172.821 18.32C174.261 17.5467 175.901 17.16 177.741 17.16C179.448 17.16 180.968 17.5067 182.301 18.2C183.661 18.8667 184.728 19.9067 185.501 21.32C186.275 22.7067 186.661 24.4933 186.661 26.68V39H180.421V27.64C180.421 25.9067 180.035 24.6267 179.261 23.8C178.515 22.9733 177.448 22.56 176.061 22.56C175.075 22.56 174.181 22.7733 173.381 23.2C172.608 23.6 171.995 24.2267 171.541 25.08C171.115 25.9333 170.901 27.0267 170.901 28.36V39H164.661ZM203.154 39.32C200.7 39.32 198.54 38.84 196.674 37.88C194.834 36.92 193.407 35.6133 192.394 33.96C191.38 32.28 190.874 30.3733 190.874 28.24C190.874 26.08 191.367 24.1733 192.354 22.52C193.367 20.84 194.74 19.5333 196.474 18.6C198.207 17.64 200.167 17.16 202.354 17.16C204.46 17.16 206.354 17.6133 208.034 18.52C209.74 19.4 211.087 20.68 212.074 22.36C213.06 24.0133 213.554 26 213.554 28.32C213.554 28.56 213.54 28.84 213.514 29.16C213.487 29.4533 213.46 29.7333 213.434 30H195.954V26.36H210.154L207.754 27.44C207.754 26.32 207.527 25.3467 207.074 24.52C206.62 23.6933 205.994 23.0533 205.194 22.6C204.394 22.12 203.46 21.88 202.394 21.88C201.327 21.88 200.38 22.12 199.554 22.6C198.754 23.0533 198.127 23.7067 197.674 24.56C197.22 25.3867 196.994 26.3733 196.994 27.52V28.48C196.994 29.6533 197.247 30.6933 197.754 31.6C198.287 32.48 199.02 33.16 199.954 33.64C200.914 34.0933 202.034 34.32 203.314 34.32C204.46 34.32 205.46 34.1467 206.314 33.8C207.194 33.4533 207.994 32.9333 208.714 32.24L212.034 35.84C211.047 36.96 209.807 37.8267 208.314 38.44C206.82 39.0267 205.1 39.32 203.154 39.32ZM228.108 39.32C225.788 39.32 223.721 38.8533 221.908 37.92C220.095 36.96 218.668 35.64 217.628 33.96C216.615 32.28 216.108 30.3733 216.108 28.24C216.108 26.08 216.615 24.1733 217.628 22.52C218.668 20.84 220.095 19.5333 221.908 18.6C223.721 17.64 225.788 17.16 228.108 17.16C230.375 17.16 232.348 17.64 234.028 18.6C235.708 19.5333 236.948 20.88 237.748 22.64L232.908 25.24C232.348 24.2267 231.641 23.48 230.788 23C229.961 22.52 229.055 22.28 228.068 22.28C227.001 22.28 226.041 22.52 225.188 23C224.335 23.48 223.655 24.16 223.148 25.04C222.668 25.92 222.428 26.9867 222.428 28.24C222.428 29.4933 222.668 30.56 223.148 31.44C223.655 32.32 224.335 33 225.188 33.48C226.041 33.96 227.001 34.2 228.068 34.2C229.055 34.2 229.961 33.9733 230.788 33.52C231.641 33.04 232.348 32.28 232.908 31.24L237.748 33.88C236.948 35.6133 235.708 36.96 234.028 37.92C232.348 38.8533 230.375 39.32 228.108 39.32ZM250.453 39.32C247.92 39.32 245.947 38.68 244.533 37.4C243.12 36.0933 242.413 34.16 242.413 31.6V12.72H248.653V31.52C248.653 32.4267 248.893 33.1333 249.373 33.64C249.853 34.12 250.507 34.36 251.333 34.36C252.32 34.36 253.16 34.0933 253.853 33.56L255.533 37.96C254.893 38.4133 254.12 38.76 253.213 39C252.333 39.2133 251.413 39.32 250.453 39.32ZM239.093 22.28V17.48H254.013V22.28H239.093Z"/>
</mask>
<path d="M55.12 32.6L54.76 25.12L68.16 11H75.36L63.28 24L59.68 27.84L55.12 32.6ZM49.32 39V11H55.76V39H49.32ZM68.48 39L58.52 26.8L62.76 22.2L76.04 39H68.48ZM98.1294 39V11H104.609V39H98.1294ZM78.9294 39V11H85.4094V39H78.9294ZM84.9294 27.52V22.04H98.6094V27.52H84.9294ZM121.034 39.32C118.741 39.32 116.701 38.84 114.914 37.88C113.154 36.92 111.754 35.6133 110.714 33.96C109.701 32.28 109.194 30.3733 109.194 28.24C109.194 26.08 109.701 24.1733 110.714 22.52C111.754 20.84 113.154 19.5333 114.914 18.6C116.701 17.64 118.741 17.16 121.034 17.16C123.301 17.16 125.327 17.64 127.114 18.6C128.901 19.5333 130.301 20.8267 131.314 22.48C132.327 24.1333 132.834 26.0533 132.834 28.24C132.834 30.3733 132.327 32.28 131.314 33.96C130.301 35.6133 128.901 36.92 127.114 37.88C125.327 38.84 123.301 39.32 121.034 39.32ZM121.034 34.2C122.074 34.2 123.007 33.96 123.834 33.48C124.661 33 125.314 32.32 125.794 31.44C126.274 30.5333 126.514 29.4667 126.514 28.24C126.514 26.9867 126.274 25.92 125.794 25.04C125.314 24.16 124.661 23.48 123.834 23C123.007 22.52 122.074 22.28 121.034 22.28C119.994 22.28 119.061 22.52 118.234 23C117.407 23.48 116.741 24.16 116.234 25.04C115.754 25.92 115.514 26.9867 115.514 28.24C115.514 29.4667 115.754 30.5333 116.234 31.44C116.741 32.32 117.407 33 118.234 33.48C119.061 33.96 119.994 34.2 121.034 34.2ZM137.005 39V17.48H142.965V23.44L141.845 21.64C142.618 20.2 143.725 19.0933 145.165 18.32C146.605 17.5467 148.245 17.16 150.085 17.16C151.792 17.16 153.312 17.5067 154.645 18.2C156.005 18.8667 157.072 19.9067 157.845 21.32C158.618 22.7067 159.005 24.4933 159.005 26.68V39H152.765V27.64C152.765 25.9067 152.378 24.6267 151.605 23.8C150.858 22.9733 149.792 22.56 148.405 22.56C147.418 22.56 146.525 22.7733 145.725 23.2C144.952 23.6 144.338 24.2267 143.885 25.08C143.458 25.9333 143.245 27.0267 143.245 28.36V39H137.005ZM164.661 39V17.48H170.621V23.44L169.501 21.64C170.275 20.2 171.381 19.0933 172.821 18.32C174.261 17.5467 175.901 17.16 177.741 17.16C179.448 17.16 180.968 17.5067 182.301 18.2C183.661 18.8667 184.728 19.9067 185.501 21.32C186.275 22.7067 186.661 24.4933 186.661 26.68V39H180.421V27.64C180.421 25.9067 180.035 24.6267 179.261 23.8C178.515 22.9733 177.448 22.56 176.061 22.56C175.075 22.56 174.181 22.7733 173.381 23.2C172.608 23.6 171.995 24.2267 171.541 25.08C171.115 25.9333 170.901 27.0267 170.901 28.36V39H164.661ZM203.154 39.32C200.7 39.32 198.54 38.84 196.674 37.88C194.834 36.92 193.407 35.6133 192.394 33.96C191.38 32.28 190.874 30.3733 190.874 28.24C190.874 26.08 191.367 24.1733 192.354 22.52C193.367 20.84 194.74 19.5333 196.474 18.6C198.207 17.64 200.167 17.16 202.354 17.16C204.46 17.16 206.354 17.6133 208.034 18.52C209.74 19.4 211.087 20.68 212.074 22.36C213.06 24.0133 213.554 26 213.554 28.32C213.554 28.56 213.54 28.84 213.514 29.16C213.487 29.4533 213.46 29.7333 213.434 30H195.954V26.36H210.154L207.754 27.44C207.754 26.32 207.527 25.3467 207.074 24.52C206.62 23.6933 205.994 23.0533 205.194 22.6C204.394 22.12 203.46 21.88 202.394 21.88C201.327 21.88 200.38 22.12 199.554 22.6C198.754 23.0533 198.127 23.7067 197.674 24.56C197.22 25.3867 196.994 26.3733 196.994 27.52V28.48C196.994 29.6533 197.247 30.6933 197.754 31.6C198.287 32.48 199.02 33.16 199.954 33.64C200.914 34.0933 202.034 34.32 203.314 34.32C204.46 34.32 205.46 34.1467 206.314 33.8C207.194 33.4533 207.994 32.9333 208.714 32.24L212.034 35.84C211.047 36.96 209.807 37.8267 208.314 38.44C206.82 39.0267 205.1 39.32 203.154 39.32ZM228.108 39.32C225.788 39.32 223.721 38.8533 221.908 37.92C220.095 36.96 218.668 35.64 217.628 33.96C216.615 32.28 216.108 30.3733 216.108 28.24C216.108 26.08 216.615 24.1733 217.628 22.52C218.668 20.84 220.095 19.5333 221.908 18.6C223.721 17.64 225.788 17.16 228.108 17.16C230.375 17.16 232.348 17.64 234.028 18.6C235.708 19.5333 236.948 20.88 237.748 22.64L232.908 25.24C232.348 24.2267 231.641 23.48 230.788 23C229.961 22.52 229.055 22.28 228.068 22.28C227.001 22.28 226.041 22.52 225.188 23C224.335 23.48 223.655 24.16 223.148 25.04C222.668 25.92 222.428 26.9867 222.428 28.24C222.428 29.4933 222.668 30.56 223.148 31.44C223.655 32.32 224.335 33 225.188 33.48C226.041 33.96 227.001 34.2 228.068 34.2C229.055 34.2 229.961 33.9733 230.788 33.52C231.641 33.04 232.348 32.28 232.908 31.24L237.748 33.88C236.948 35.6133 235.708 36.96 234.028 37.92C232.348 38.8533 230.375 39.32 228.108 39.32ZM250.453 39.32C247.92 39.32 245.947 38.68 244.533 37.4C243.12 36.0933 242.413 34.16 242.413 31.6V12.72H248.653V31.52C248.653 32.4267 248.893 33.1333 249.373 33.64C249.853 34.12 250.507 34.36 251.333 34.36C252.32 34.36 253.16 34.0933 253.853 33.56L255.533 37.96C254.893 38.4133 254.12 38.76 253.213 39C252.333 39.2133 251.413 39.32 250.453 39.32ZM239.093 22.28V17.48H254.013V22.28H239.093Z" fill="#1A73E8"/>
<path d="M55.12 32.6L54.1212 32.6481L54.233 34.9715L55.8421 33.2918L55.12 32.6ZM54.76 25.12L54.0346 24.4316L53.7406 24.7414L53.7612 25.1681L54.76 25.12ZM68.16 11V10H67.7304L67.4346 10.3116L68.16 11ZM75.36 11L76.0926 11.6807L77.6543 10H75.36V11ZM63.28 24L64.0095 24.6839L64.0126 24.6807L63.28 24ZM59.68 27.84L60.4022 28.5318L60.4095 28.5239L59.68 27.84ZM49.32 39H48.32V40H49.32V39ZM49.32 11V10H48.32V11H49.32ZM55.76 11H56.76V10H55.76V11ZM55.76 39V40H56.76V39H55.76ZM68.48 39L67.7054 39.6324L68.0055 40H68.48V39ZM58.52 26.8L57.7847 26.1223L57.1966 26.7603L57.7454 27.4324L58.52 26.8ZM62.76 22.2L63.5445 21.5799L62.8183 20.6612L62.0247 21.5223L62.76 22.2ZM76.04 39V40H78.1052L76.8245 38.3799L76.04 39ZM56.1188 32.5519L55.7588 25.0719L53.7612 25.1681L54.1212 32.6481L56.1188 32.5519ZM55.4854 25.8084L68.8854 11.6884L67.4346 10.3116L54.0346 24.4316L55.4854 25.8084ZM68.16 12H75.36V10H68.16V12ZM74.6274 10.3193L62.5474 23.3193L64.0126 24.6807L76.0926 11.6807L74.6274 10.3193ZM62.5505 23.3161L58.9505 27.1561L60.4095 28.5239L64.0095 24.6839L62.5505 23.3161ZM58.9579 27.1482L54.3979 31.9082L55.8421 33.2918L60.4021 28.5318L58.9579 27.1482ZM50.32 39V11H48.32V39H50.32ZM49.32 12H55.76V10H49.32V12ZM54.76 11V39H56.76V11H54.76ZM55.76 38H49.32V40H55.76V38ZM69.2546 38.3676L59.2946 26.1676L57.7454 27.4324L67.7054 39.6324L69.2546 38.3676ZM59.2553 27.4777L63.4953 22.8777L62.0247 21.5223L57.7847 26.1223L59.2553 27.4777ZM61.9755 22.8201L75.2555 39.6201L76.8245 38.3799L63.5445 21.5799L61.9755 22.8201ZM76.04 38H68.48V40H76.04V38ZM98.1294 39H97.1294V40H98.1294V39ZM98.1294 11V10H97.1294V11H98.1294ZM104.609 11H105.609V10H104.609V11ZM104.609 39V40H105.609V39H104.609ZM78.9294 39H77.9294V40H78.9294V39ZM78.9294 11V10H77.9294V11H78.9294ZM85.4094 11H86.4094V10H85.4094V11ZM85.4094 39V40H86.4094V39H85.4094ZM84.9294 27.52H83.9294V28.52H84.9294V27.52ZM84.9294 22.04V21.04H83.9294V22.04H84.9294ZM98.6094 22.04H99.6094V21.04H98.6094V22.04ZM98.6094 27.52V28.52H99.6094V27.52H98.6094ZM99.1294 39V11H97.1294V39H99.1294ZM98.1294 12H104.609V10H98.1294V12ZM103.609 11V39H105.609V11H103.609ZM104.609 38H98.1294V40H104.609V38ZM79.9294 39V11H77.9294V39H79.9294ZM78.9294 12H85.4094V10H78.9294V12ZM84.4094 11V39H86.4094V11H84.4094ZM85.4094 38H78.9294V40H85.4094V38ZM85.9294 27.52V22.04H83.9294V27.52H85.9294ZM84.9294 23.04H98.6094V21.04H84.9294V23.04ZM97.6094 22.04V27.52H99.6094V22.04H97.6094ZM98.6094 26.52H84.9294V28.52H98.6094V26.52ZM114.914 37.88L114.435 38.7579L114.441 38.7609L114.914 37.88ZM110.714 33.96L109.858 34.4765L109.863 34.4845L109.868 34.4925L110.714 33.96ZM110.714 22.52L109.864 21.9936L109.861 21.9974L110.714 22.52ZM114.914 18.6L115.383 19.4835L115.387 19.4809L114.914 18.6ZM127.114 18.6L126.641 19.481L126.651 19.4863L127.114 18.6ZM131.314 33.96L132.167 34.4826L132.17 34.4765L131.314 33.96ZM127.114 37.88L126.641 36.9991L126.641 36.9991L127.114 37.88ZM123.834 33.48L124.336 34.3448L124.336 34.3448L123.834 33.48ZM125.794 31.44L126.672 31.9189L126.678 31.9079L125.794 31.44ZM125.794 25.04L124.916 25.5189L124.916 25.5189L125.794 25.04ZM123.834 23L123.332 23.8648L123.332 23.8648L123.834 23ZM118.234 23L118.736 23.8648L118.736 23.8648L118.234 23ZM116.234 25.04L115.367 24.541L115.362 24.551L115.356 24.5611L116.234 25.04ZM116.234 31.44L115.35 31.9079L115.359 31.9236L115.367 31.939L116.234 31.44ZM118.234 33.48L118.736 32.6152L118.736 32.6152L118.234 33.48ZM121.034 38.32C118.884 38.32 117.01 37.8712 115.387 36.9991L114.441 38.7609C116.391 39.8088 118.597 40.32 121.034 40.32V38.32ZM115.393 37.0021C113.779 36.1217 112.507 34.9323 111.561 33.4275L109.868 34.4925C111.001 36.2944 112.529 37.7183 114.435 38.7579L115.393 37.0021ZM111.57 33.4435C110.659 31.9329 110.194 30.2077 110.194 28.24H108.194C108.194 30.5389 108.742 32.6271 109.858 34.4765L111.57 33.4435ZM110.194 28.24C110.194 26.2428 110.66 24.5212 111.567 23.0426L109.861 21.9974C108.741 23.8255 108.194 25.9172 108.194 28.24H110.194ZM111.564 23.0464C112.51 21.5184 113.778 20.3344 115.383 19.4835L114.446 17.7165C112.53 18.7322 110.998 20.1616 109.864 21.9936L111.564 23.0464ZM115.387 19.4809C117.01 18.6088 118.884 18.16 121.034 18.16V16.16C118.597 16.16 116.391 16.6712 114.441 17.7191L115.387 19.4809ZM121.034 18.16C123.155 18.16 125.016 18.6079 126.641 19.4809L127.587 17.7191C125.639 16.6721 123.446 16.16 121.034 16.16V18.16ZM126.651 19.4863C128.284 20.3394 129.547 21.5098 130.461 23.0026L132.167 21.9574C131.055 20.1436 129.518 18.7273 127.577 17.7136L126.651 19.4863ZM130.461 23.0026C131.367 24.4793 131.834 26.2136 131.834 28.24H133.834C133.834 25.893 133.288 23.7874 132.167 21.9574L130.461 23.0026ZM131.834 28.24C131.834 30.2077 131.369 31.9329 130.458 33.4435L132.17 34.4765C133.286 32.6271 133.834 30.5389 133.834 28.24H131.834ZM130.461 33.4374C129.545 34.9328 128.279 36.1189 126.641 36.9991L127.587 38.7609C129.522 37.7211 131.057 36.2939 132.167 34.4826L130.461 33.4374ZM126.641 36.9991C125.016 37.8721 123.155 38.32 121.034 38.32V40.32C123.446 40.32 125.639 39.8079 127.587 38.7609L126.641 36.9991ZM121.034 35.2C122.234 35.2 123.344 34.9211 124.336 34.3448L123.332 32.6152C122.671 32.9989 121.914 33.2 121.034 33.2V35.2ZM124.336 34.3448C125.329 33.7684 126.109 32.9513 126.672 31.9189L124.916 30.9611C124.519 31.6887 123.993 32.2316 123.332 32.6152L124.336 34.3448ZM126.678 31.9079C127.248 30.8314 127.514 29.598 127.514 28.24H125.514C125.514 29.3353 125.3 30.2353 124.91 30.9721L126.678 31.9079ZM127.514 28.24C127.514 26.8605 127.25 25.6204 126.672 24.5611L124.916 25.5189C125.298 26.2196 125.514 27.1128 125.514 28.24H127.514ZM126.672 24.5611C126.109 23.5287 125.329 22.7116 124.336 22.1352L123.332 23.8648C123.993 24.2484 124.519 24.7913 124.916 25.5189L126.672 24.5611ZM124.336 22.1352C123.344 21.5589 122.234 21.28 121.034 21.28V23.28C121.914 23.28 122.671 23.4811 123.332 23.8648L124.336 22.1352ZM121.034 21.28C119.834 21.28 118.724 21.5589 117.732 22.1352L118.736 23.8648C119.397 23.4811 120.154 23.28 121.034 23.28V21.28ZM117.732 22.1352C116.744 22.7086 115.956 23.5191 115.367 24.541L117.101 25.539C117.526 24.8009 118.07 24.2514 118.736 23.8648L117.732 22.1352ZM115.356 24.5611C114.778 25.6204 114.514 26.8605 114.514 28.24H116.514C116.514 27.1128 116.73 26.2196 117.112 25.5189L115.356 24.5611ZM114.514 28.24C114.514 29.598 114.78 30.8314 115.35 31.9079L117.118 30.9721C116.728 30.2353 116.514 29.3353 116.514 28.24H114.514ZM115.367 31.939C115.956 32.9609 116.744 33.7714 117.732 34.3448L118.736 32.6152C118.07 32.2286 117.526 31.6791 117.101 30.941L115.367 31.939ZM117.732 34.3448C118.724 34.9211 119.834 35.2 121.034 35.2V33.2C120.154 33.2 119.397 32.9989 118.736 32.6152L117.732 34.3448ZM137.005 39H136.005V40H137.005V39ZM137.005 17.48V16.48H136.005V17.48H137.005ZM142.965 17.48H143.965V16.48H142.965V17.48ZM142.965 23.44L142.116 23.9683L143.965 26.94V23.44H142.965ZM141.845 21.64L140.964 21.1669L140.69 21.6768L140.996 22.1683L141.845 21.64ZM145.165 18.32L145.638 19.201L145.638 19.201L145.165 18.32ZM154.645 18.2L154.184 19.0872L154.194 19.0927L154.205 19.0979L154.645 18.2ZM157.845 21.32L156.968 21.8L156.972 21.8071L157.845 21.32ZM159.005 39V40H160.005V39H159.005ZM152.765 39H151.765V40H152.765V39ZM151.605 23.8L150.863 24.4703L150.869 24.4768L150.875 24.4832L151.605 23.8ZM145.725 23.2L146.184 24.0883L146.196 24.0824L145.725 23.2ZM143.885 25.08L143.002 24.6108L142.996 24.6217L142.991 24.6328L143.885 25.08ZM143.245 39V40H144.245V39H143.245ZM138.005 39V17.48H136.005V39H138.005ZM137.005 18.48H142.965V16.48H137.005V18.48ZM141.965 17.48V23.44H143.965V17.48H141.965ZM143.814 22.9117L142.694 21.1117L140.996 22.1683L142.116 23.9683L143.814 22.9117ZM142.726 22.1131C143.406 20.8462 144.371 19.8814 145.638 19.201L144.692 17.439C143.079 18.3053 141.83 19.5538 140.964 21.1669L142.726 22.1131ZM145.638 19.201C146.915 18.5152 148.389 18.16 150.085 18.16V16.16C148.101 16.16 146.295 16.5782 144.692 17.439L145.638 19.201ZM150.085 18.16C151.653 18.16 153.011 18.4775 154.184 19.0872L155.106 17.3128C153.612 16.5358 151.93 16.16 150.085 16.16V18.16ZM154.205 19.0979C155.367 19.6678 156.287 20.5556 156.968 21.8L158.722 20.84C157.857 19.2578 156.643 18.0655 155.085 17.3021L154.205 19.0979ZM156.972 21.8071C157.636 22.9992 158.005 24.6025 158.005 26.68H160.005C160.005 24.3841 159.6 22.4142 158.718 20.8329L156.972 21.8071ZM158.005 26.68V39H160.005V26.68H158.005ZM159.005 38H152.765V40H159.005V38ZM153.765 39V27.64H151.765V39H153.765ZM153.765 27.64C153.765 25.7838 153.354 24.2062 152.335 23.1168L150.875 24.4832C151.402 25.0472 151.765 26.0296 151.765 27.64H153.765ZM152.347 23.1297C151.366 22.0436 150 21.56 148.405 21.56V23.56C149.583 23.56 150.351 23.9031 150.863 24.4703L152.347 23.1297ZM148.405 21.56C147.269 21.56 146.212 21.807 145.254 22.3176L146.196 24.0824C146.838 23.7396 147.568 23.56 148.405 23.56V21.56ZM145.266 22.3118C144.292 22.8153 143.54 23.5986 143.002 24.6108L144.768 25.5492C145.137 24.8548 145.611 24.3847 146.184 24.0882L145.266 22.3118ZM142.991 24.6328C142.473 25.6689 142.245 26.9294 142.245 28.36H144.245C144.245 27.1239 144.444 26.1977 144.779 25.5272L142.991 24.6328ZM142.245 28.36V39H144.245V28.36H142.245ZM143.245 38H137.005V40H143.245V38ZM164.661 39H163.661V40H164.661V39ZM164.661 17.48V16.48H163.661V17.48H164.661ZM170.621 17.48H171.621V16.48H170.621V17.48ZM170.621 23.44L169.772 23.9683L171.621 26.94V23.44H170.621ZM169.501 21.64L168.62 21.1669L168.346 21.6768L168.652 22.1683L169.501 21.64ZM172.821 18.32L173.294 19.201L173.294 19.201L172.821 18.32ZM182.301 18.2L181.84 19.0872L181.85 19.0927L181.861 19.0979L182.301 18.2ZM185.501 21.32L184.624 21.8L184.628 21.8071L185.501 21.32ZM186.661 39V40H187.661V39H186.661ZM180.421 39H179.421V40H180.421V39ZM179.261 23.8L178.519 24.4703L178.525 24.4768L178.531 24.4832L179.261 23.8ZM173.381 23.2L173.841 24.0883L173.852 24.0824L173.381 23.2ZM171.541 25.08L170.658 24.6108L170.652 24.6217L170.647 24.6328L171.541 25.08ZM170.901 39V40H171.901V39H170.901ZM165.661 39V17.48H163.661V39H165.661ZM164.661 18.48H170.621V16.48H164.661V18.48ZM169.621 17.48V23.44H171.621V17.48H169.621ZM171.47 22.9117L170.35 21.1117L168.652 22.1683L169.772 23.9683L171.47 22.9117ZM170.382 22.1131C171.063 20.8462 172.027 19.8814 173.294 19.201L172.348 17.439C170.735 18.3053 169.487 19.5538 168.62 21.1669L170.382 22.1131ZM173.294 19.201C174.571 18.5152 176.045 18.16 177.741 18.16V16.16C175.757 16.16 173.951 16.5782 172.348 17.439L173.294 19.201ZM177.741 18.16C179.309 18.16 180.667 18.4775 181.84 19.0872L182.763 17.3128C181.268 16.5358 179.587 16.16 177.741 16.16V18.16ZM181.861 19.0979C183.024 19.6678 183.943 20.5556 184.624 21.8L186.379 20.84C185.513 19.2578 184.299 18.0655 182.741 17.3021L181.861 19.0979ZM184.628 21.8071C185.293 22.9992 185.661 24.6025 185.661 26.68H187.661C187.661 24.3841 187.256 22.4142 186.375 20.8329L184.628 21.8071ZM185.661 26.68V39H187.661V26.68H185.661ZM186.661 38H180.421V40H186.661V38ZM181.421 39V27.64H179.421V39H181.421ZM181.421 27.64C181.421 25.7838 181.011 24.2062 179.992 23.1168L178.531 24.4832C179.059 25.0472 179.421 26.0296 179.421 27.64H181.421ZM180.003 23.1297C179.022 22.0436 177.656 21.56 176.061 21.56V23.56C177.24 23.56 178.007 23.9031 178.519 24.4703L180.003 23.1297ZM176.061 21.56C174.925 21.56 173.868 21.807 172.911 22.3176L173.852 24.0824C174.494 23.7396 175.224 23.56 176.061 23.56V21.56ZM172.922 22.3118C171.948 22.8153 171.196 23.5986 170.658 24.6108L172.424 25.5492C172.793 24.8548 173.268 24.3847 173.841 24.0882L172.922 22.3118ZM170.647 24.6328C170.129 25.6689 169.901 26.9294 169.901 28.36H171.901C171.901 27.1239 172.1 26.1977 172.436 25.5272L170.647 24.6328ZM169.901 28.36V39H171.901V28.36H169.901ZM170.901 38H164.661V40H170.901V38ZM196.674 37.88L196.211 38.7666L196.216 38.7693L196.674 37.88ZM192.394 33.96L191.537 34.4765L191.541 34.4826L192.394 33.96ZM192.354 22.52L191.497 22.0035L191.495 22.0075L192.354 22.52ZM196.474 18.6L196.948 19.4805L196.958 19.4748L196.474 18.6ZM208.034 18.52L207.559 19.4L207.567 19.4045L207.575 19.4088L208.034 18.52ZM212.074 22.36L211.211 22.8664L211.215 22.8725L212.074 22.36ZM213.514 29.16L214.51 29.2505L214.51 29.243L213.514 29.16ZM213.434 30V31H214.339L214.429 30.0995L213.434 30ZM195.954 30H194.954V31H195.954V30ZM195.954 26.36V25.36H194.954V26.36H195.954ZM210.154 26.36L210.564 27.2719L210.154 25.36V26.36ZM207.754 27.44H206.754V28.9866L208.164 28.3519L207.754 27.44ZM207.074 24.52L206.197 25.0008L206.197 25.0008L207.074 24.52ZM205.194 22.6L204.679 23.4575L204.69 23.4639L204.701 23.47L205.194 22.6ZM199.554 22.6L200.047 23.4701L200.056 23.4648L199.554 22.6ZM197.674 24.56L198.551 25.0409L198.557 25.0292L197.674 24.56ZM197.754 31.6L196.881 32.0878L196.889 32.1032L196.899 32.1183L197.754 31.6ZM199.954 33.64L199.496 34.5293L199.511 34.537L199.527 34.5442L199.954 33.64ZM206.314 33.8L205.947 32.8695L205.937 32.8735L206.314 33.8ZM208.714 32.24L209.449 31.5621L208.756 30.8109L208.02 31.5197L208.714 32.24ZM212.034 35.84L212.784 36.501L213.38 35.8247L212.769 35.1621L212.034 35.84ZM208.314 38.44L208.679 39.3708L208.687 39.3679L208.694 39.365L208.314 38.44ZM203.154 38.32C200.833 38.32 198.834 37.8666 197.131 36.9907L196.216 38.7693C198.247 39.8134 200.568 40.32 203.154 40.32V38.32ZM197.136 36.9934C195.445 36.1111 194.158 34.9255 193.246 33.4374L191.541 34.4826C192.656 36.3012 194.222 37.7289 196.211 38.7666L197.136 36.9934ZM193.25 33.4435C192.339 31.9329 191.874 30.2077 191.874 28.24H189.874C189.874 30.5389 190.422 32.6271 191.537 34.4765L193.25 33.4435ZM191.874 28.24C191.874 26.2379 192.329 24.5126 193.212 23.0325L191.495 22.0075C190.405 23.8341 189.874 25.9221 189.874 28.24H191.874ZM193.21 23.0365C194.131 21.5104 195.372 20.3292 196.948 19.4805L196 17.7195C194.109 18.7375 192.604 20.1696 191.497 22.0035L193.21 23.0365ZM196.958 19.4748C198.528 18.6052 200.319 18.16 202.354 18.16V16.16C200.016 16.16 197.886 16.6748 195.989 17.7252L196.958 19.4748ZM202.354 18.16C204.312 18.16 206.039 18.58 207.559 19.4L208.509 17.64C206.668 16.6466 204.609 16.16 202.354 16.16V18.16ZM207.575 19.4088C209.111 20.2008 210.319 21.347 211.211 22.8664L212.936 21.8536C211.855 20.013 210.369 18.5992 208.492 17.6312L207.575 19.4088ZM211.215 22.8725C212.092 24.3418 212.554 26.1434 212.554 28.32H214.554C214.554 25.8566 214.029 23.6848 212.932 21.8475L211.215 22.8725ZM212.554 28.32C212.554 28.5248 212.542 28.776 212.517 29.077L214.51 29.243C214.539 28.904 214.554 28.5952 214.554 28.32H212.554ZM212.518 29.0695C212.491 29.3601 212.465 29.6371 212.439 29.9005L214.429 30.0995C214.456 29.8296 214.483 29.5466 214.51 29.2505L212.518 29.0695ZM213.434 29H195.954V31H213.434V29ZM196.954 30V26.36H194.954V30H196.954ZM195.954 27.36H210.154V25.36H195.954V27.36ZM209.743 25.4481L207.343 26.5281L208.164 28.3519L210.564 27.2719L209.743 25.4481ZM208.754 27.44C208.754 26.1835 208.499 25.0386 207.951 24.0392L206.197 25.0008C206.556 25.6547 206.754 26.4565 206.754 27.44H208.754ZM207.951 24.0392C207.41 23.054 206.653 22.2773 205.687 21.73L204.701 23.47C205.335 23.8294 205.831 24.3327 206.197 25.0008L207.951 24.0392ZM205.708 21.7425C204.732 21.1565 203.615 20.88 202.394 20.88V22.88C203.306 22.88 204.056 23.0835 204.679 23.4575L205.708 21.7425ZM202.394 20.88C201.172 20.88 200.048 21.1567 199.052 21.7352L200.056 23.4648C200.713 23.0833 201.483 22.88 202.394 22.88V20.88ZM199.061 21.73C198.087 22.282 197.328 23.0785 196.791 24.0908L198.557 25.0292C198.926 24.3349 199.421 23.8247 200.047 23.47L199.061 21.73ZM196.797 24.0792C196.247 25.0819 195.994 26.2413 195.994 27.52H197.994C197.994 26.5053 198.194 25.6914 198.551 25.0408L196.797 24.0792ZM195.994 27.52V28.48H197.994V27.52H195.994ZM195.994 28.48C195.994 29.8016 196.28 31.0136 196.881 32.0878L198.627 31.1122C198.214 30.3731 197.994 29.5051 197.994 28.48H195.994ZM196.899 32.1183C197.53 33.1596 198.402 33.9665 199.496 34.5293L200.411 32.7507C199.639 32.3535 199.044 31.8004 198.609 31.0817L196.899 32.1183ZM199.527 34.5442C200.645 35.0723 201.916 35.32 203.314 35.32V33.32C202.152 33.32 201.183 33.1144 200.381 32.7358L199.527 34.5442ZM203.314 35.32C204.559 35.32 205.692 35.132 206.69 34.7265L205.937 32.8735C205.229 33.1613 204.362 33.32 203.314 33.32V35.32ZM206.68 34.7304C207.689 34.3331 208.599 33.7392 209.407 32.9603L208.02 31.5197C207.389 32.1275 206.699 32.5736 205.947 32.8696L206.68 34.7304ZM207.979 32.9179L211.299 36.5179L212.769 35.1621L209.449 31.5621L207.979 32.9179ZM211.283 35.179C210.406 36.1745 209.297 36.9552 207.934 37.515L208.694 39.365C210.317 38.6982 211.688 37.7455 212.784 36.501L211.283 35.179ZM207.948 37.5092C206.593 38.0415 205.001 38.32 203.154 38.32V40.32C205.2 40.32 207.048 40.0118 208.679 39.3708L207.948 37.5092ZM221.908 37.92L221.44 38.8038L221.45 38.8091L221.908 37.92ZM217.628 33.96L216.772 34.4765L216.778 34.4864L217.628 33.96ZM217.628 22.52L216.778 21.9936L216.776 21.9974L217.628 22.52ZM221.908 18.6L222.366 19.4892L222.376 19.4838L221.908 18.6ZM234.028 18.6L233.532 19.4683L233.542 19.4742L234.028 18.6ZM237.748 22.64L238.221 23.5209L239.046 23.0781L238.658 22.2262L237.748 22.64ZM232.908 25.24L232.033 25.7237L232.511 26.5886L233.381 26.1209L232.908 25.24ZM230.788 23L230.286 23.8649L230.298 23.8716L230.788 23ZM225.188 23L225.678 23.8716L225.678 23.8716L225.188 23ZM223.148 25.04L222.282 24.541L222.276 24.551L222.27 24.5611L223.148 25.04ZM223.148 31.44L222.27 31.9189L222.276 31.929L222.282 31.939L223.148 31.44ZM225.188 33.48L225.678 32.6084L225.678 32.6084L225.188 33.48ZM230.788 33.52L231.269 34.3969L231.278 34.3916L230.788 33.52ZM232.908 31.24L233.387 30.3621L232.504 29.8807L232.028 30.7659L232.908 31.24ZM237.748 33.88L238.656 34.2991L239.048 33.4499L238.227 33.0021L237.748 33.88ZM234.028 37.92L234.514 38.7942L234.524 38.7882L234.028 37.92ZM228.108 38.32C225.925 38.32 224.019 37.8819 222.366 37.0309L221.45 38.8091C223.424 39.8248 225.651 40.32 228.108 40.32V38.32ZM222.376 37.0362C220.713 36.156 219.421 34.9567 218.478 33.4336L216.778 34.4864C217.915 36.3233 219.476 37.764 221.44 38.8038L222.376 37.0362ZM218.484 33.4435C217.573 31.9329 217.108 30.2077 217.108 28.24H215.108C215.108 30.5389 215.656 32.6271 216.772 34.4765L218.484 33.4435ZM217.108 28.24C217.108 26.2428 217.574 24.5212 218.481 23.0426L216.776 21.9974C215.655 23.8255 215.108 25.9172 215.108 28.24H217.108ZM218.478 23.0464C219.42 21.5258 220.708 20.3422 222.366 19.4891L221.45 17.7109C219.481 18.7245 217.917 20.1542 216.778 21.9936L218.478 23.0464ZM222.376 19.4838C224.027 18.6096 225.93 18.16 228.108 18.16V16.16C225.647 16.16 223.416 16.6704 221.44 17.7162L222.376 19.4838ZM228.108 18.16C230.231 18.16 232.027 18.6084 233.532 19.4682L234.524 17.7318C232.669 16.6716 230.519 16.16 228.108 16.16V18.16ZM233.542 19.4742C235.034 20.3028 236.126 21.4875 236.838 23.0538L238.658 22.2262C237.77 20.2725 236.382 18.7639 234.514 17.7258L233.542 19.4742ZM237.275 21.7591L232.435 24.3591L233.381 26.1209L238.221 23.5209L237.275 21.7591ZM233.783 24.7563C233.15 23.6105 232.321 22.7149 231.278 22.1284L230.298 23.8716C230.962 24.2451 231.546 24.8429 232.033 25.7237L233.783 24.7563ZM231.29 22.1352C230.306 21.5637 229.225 21.28 228.068 21.28V23.28C228.884 23.28 229.617 23.4763 230.286 23.8648L231.29 22.1352ZM228.068 21.28C226.846 21.28 225.714 21.5568 224.698 22.1284L225.678 23.8716C226.369 23.4832 227.157 23.28 228.068 23.28V21.28ZM224.698 22.1284C223.682 22.6999 222.874 23.5113 222.282 24.541L224.015 25.539C224.435 24.8087 224.988 24.2601 225.678 23.8716L224.698 22.1284ZM222.27 24.5611C221.692 25.6204 221.428 26.8605 221.428 28.24H223.428C223.428 27.1128 223.644 26.2196 224.026 25.5189L222.27 24.5611ZM221.428 28.24C221.428 29.6195 221.692 30.8596 222.27 31.9189L224.026 30.9611C223.644 30.2604 223.428 29.3672 223.428 28.24H221.428ZM222.282 31.939C222.874 32.9687 223.682 33.7801 224.698 34.3516L225.678 32.6084C224.988 32.2199 224.435 31.6713 224.015 30.941L222.282 31.939ZM224.698 34.3516C225.714 34.9232 226.846 35.2 228.068 35.2V33.2C227.157 33.2 226.369 32.9968 225.678 32.6084L224.698 34.3516ZM228.068 35.2C229.215 35.2 230.288 34.9348 231.269 34.3968L230.307 32.6432C229.635 33.0119 228.895 33.2 228.068 33.2V35.2ZM231.278 34.3916C232.328 33.8011 233.157 32.8862 233.789 31.7141L232.028 30.7659C231.539 31.6738 230.955 32.2789 230.298 32.6484L231.278 34.3916ZM232.429 32.1179L237.269 34.7579L238.227 33.0021L233.387 30.3621L232.429 32.1179ZM236.84 33.4609C236.129 35.0026 235.034 36.1935 233.532 37.0518L234.524 38.7882C236.382 37.7265 237.768 36.224 238.656 34.2991L236.84 33.4609ZM233.542 37.0458C232.036 37.883 230.235 38.32 228.108 38.32V40.32C230.514 40.32 232.661 39.8237 234.514 38.7942L233.542 37.0458ZM244.533 37.4L243.855 38.1343L243.862 38.1412L244.533 37.4ZM242.413 12.72V11.72H241.413V12.72H242.413ZM248.653 12.72H249.653V11.72H248.653V12.72ZM249.373 33.64L248.647 34.3277L248.657 34.3376L248.666 34.3471L249.373 33.64ZM253.853 33.56L254.788 33.2033L254.308 31.9483L253.244 32.7674L253.853 33.56ZM255.533 37.96L256.111 38.776L256.744 38.3278L256.468 37.6033L255.533 37.96ZM253.213 39L253.449 39.9719L253.459 39.9694L253.469 39.9667L253.213 39ZM239.093 22.28H238.093V23.28H239.093V22.28ZM239.093 17.48V16.48H238.093V17.48H239.093ZM254.013 17.48H255.013V16.48H254.013V17.48ZM254.013 22.28V23.28H255.013V22.28H254.013ZM250.453 38.32C248.085 38.32 246.381 37.7238 245.205 36.6588L243.862 38.1412C245.513 39.6362 247.755 40.32 250.453 40.32V38.32ZM245.212 36.6657C244.065 35.6051 243.413 33.9775 243.413 31.6H241.413C241.413 34.3425 242.175 36.5816 243.855 38.1343L245.212 36.6657ZM243.413 31.6V12.72H241.413V31.6H243.413ZM242.413 13.72H248.653V11.72H242.413V13.72ZM247.653 12.72V31.52H249.653V12.72H247.653ZM247.653 31.52C247.653 32.6034 247.944 33.5849 248.647 34.3277L250.099 32.9523C249.843 32.6818 249.653 32.2499 249.653 31.52H247.653ZM248.666 34.3471C249.373 35.0541 250.303 35.36 251.333 35.36V33.36C250.71 33.36 250.334 33.1859 250.081 32.9329L248.666 34.3471ZM251.333 35.36C252.511 35.36 253.573 35.0375 254.463 34.3526L253.244 32.7674C252.747 33.1492 252.129 33.36 251.333 33.36V35.36ZM252.919 33.9167L254.599 38.3167L256.468 37.6033L254.788 33.2033L252.919 33.9167ZM254.955 37.144C254.43 37.5162 253.771 37.818 252.958 38.0333L253.469 39.9667C254.469 39.702 255.357 39.3105 256.111 38.776L254.955 37.144ZM252.978 38.0281C252.179 38.2217 251.339 38.32 250.453 38.32V40.32C251.488 40.32 252.487 40.205 253.449 39.9719L252.978 38.0281ZM240.093 22.28V17.48H238.093V22.28H240.093ZM239.093 18.48H254.013V16.48H239.093V18.48ZM253.013 17.48V22.28H255.013V17.48H253.013ZM254.013 21.28H239.093V23.28H254.013V21.28Z" fill="#18447C" mask="url(#path-1-outside-1_195_16)"/>
<mask id="path-3-outside-2_195_16" maskUnits="userSpaceOnUse" x="13.0457" y="20.9506" width="8" height="8" fill="black">
<rect fill="white" x="13.0457" y="20.9506" width="8" height="8"/>
<path d="M14.9047 22.7724L14.874 22.8009C14.3453 23.3274 14.0473 24.0425 14.0457 24.7888C14.044 25.535 14.3388 26.2514 14.8653 26.7803L14.8959 26.8109C15.991 27.9126 17.7738 27.917 18.8754 26.8197L18.906 26.789C20.0077 25.694 20.0121 23.9112 18.9148 22.8096L18.8841 22.779C18.3575 22.2502 17.6425 21.9522 16.8962 21.9506C16.15 21.9489 15.4336 22.2437 14.9047 22.7702"/>
</mask>
<path d="M14.9047 22.7724L14.874 22.8009C14.3453 23.3274 14.0473 24.0425 14.0457 24.7888C14.044 25.535 14.3388 26.2514 14.8653 26.7803L14.8959 26.8109C15.991 27.9126 17.7738 27.917 18.8754 26.8197L18.906 26.789C20.0077 25.694 20.0121 23.9112 18.9148 22.8096L18.8841 22.779C18.3575 22.2502 17.6425 21.9522 16.8962 21.9506C16.15 21.9489 15.4336 22.2437 14.9047 22.7702" fill="#1A73E8"/>
<path d="M14.874 22.8009L14.1936 22.0681L14.1808 22.08L14.1684 22.0923L14.874 22.8009ZM14.8653 26.7803L14.1565 27.4857L14.1582 27.4874L14.8653 26.7803ZM14.8959 26.8109L15.6052 26.106L15.6031 26.1038L14.8959 26.8109ZM18.8754 26.8197L19.5811 27.5282L19.5825 27.5268L18.8754 26.8197ZM18.906 26.789L18.2011 26.0798L18.1989 26.0819L18.906 26.789ZM18.9148 22.8096L19.6233 22.1039L19.6219 22.1025L18.9148 22.8096ZM18.8841 22.779L18.1756 23.4846L18.177 23.4861L18.8841 22.779ZM14.2242 22.0396L14.1936 22.0681L15.5545 23.5336L15.5852 23.5052L14.2242 22.0396ZM14.1684 22.0923C13.4517 22.806 13.0479 23.7751 13.0457 24.7866L15.0457 24.791C15.0467 24.3099 15.2388 23.8489 15.5797 23.5094L14.1684 22.0923ZM13.0457 24.7866C13.0434 25.798 13.443 26.7689 14.1565 27.4857L15.574 26.0748C15.2347 25.7339 15.0446 25.272 15.0457 24.791L13.0457 24.7866ZM14.1582 27.4874L14.1888 27.5181L15.6031 26.1038L15.5724 26.0732L14.1582 27.4874ZM14.1867 27.5159C15.6717 29.0098 18.0882 29.0152 19.5811 27.5282L18.1697 26.1112C17.4594 26.8187 16.3103 26.8153 15.6052 26.106L14.1867 27.5159ZM19.5825 27.5268L19.6132 27.4962L18.1989 26.0819L18.1683 26.1126L19.5825 27.5268ZM19.611 27.4983C21.1049 26.0133 21.1103 23.5968 19.6233 22.1039L18.2063 23.5153C18.9138 24.2256 18.9104 25.3747 18.2011 26.0798L19.611 27.4983ZM19.6219 22.1025L19.5912 22.0718L18.177 23.4861L18.2077 23.5167L19.6219 22.1025ZM19.5927 22.0733C18.879 21.3566 17.9099 20.9528 16.8984 20.9506L16.894 22.9506C17.3751 22.9516 17.8361 23.1437 18.1756 23.4846L19.5927 22.0733ZM16.8984 20.9506C15.887 20.9483 14.9161 21.3479 14.1993 22.0614L15.6102 23.479C15.9511 23.1396 16.4129 22.9495 16.894 22.9506L16.8984 20.9506Z" fill="#18447C" mask="url(#path-3-outside-2_195_16)"/>
<path d="M16.3731 10.6471L16.0204 10.293L15.6661 10.6457L12.6525 13.6461L12.3156 13.9816L12.3352 14.0033L5.48075 20.8223V20.812L4.62824 21.6595L1.64749 24.6227L1.29185 24.9763L1.33451 25.0189L1.324 25.0315L1.64592 25.3544L4.59262 28.3099L4.59382 28.3111L15.5673 39.3919L15.9727 39.8012L16.3209 39.3422L15.9226 39.04C16.3209 39.3422 16.321 39.3421 16.3212 39.3419L16.3215 39.3414L16.3224 39.3403L16.3248 39.3371L16.3323 39.327C16.3385 39.3186 16.347 39.3069 16.3576 39.292C16.3789 39.2624 16.4085 39.2201 16.4446 39.1662C16.5166 39.0585 16.6149 38.904 16.7237 38.7111C16.9404 38.3269 17.2038 37.7816 17.3827 37.1443C17.7418 35.8644 17.7674 34.1568 16.3207 32.7038L8.64198 24.9854L15.9714 17.6799L19.6788 21.4074C20.5948 22.3285 21.4799 22.8186 22.3131 22.9996C23.1495 23.1813 23.889 23.0418 24.4929 22.7804C25.091 22.5214 25.5572 22.1431 25.8701 21.8369C26.0278 21.6827 26.1499 21.5435 26.2337 21.4413C26.2757 21.3901 26.3084 21.3478 26.3313 21.3173C26.3427 21.302 26.3518 21.2897 26.3584 21.2805L26.3664 21.2692L26.369 21.2655L26.37 21.2641L26.3704 21.2635C26.3706 21.2633 26.3707 21.2631 25.9598 20.9782L26.3707 21.2631L26.6082 20.9205L26.3141 20.6253L16.3731 10.6471ZM30.4743 12.8983C30.11 14.1325 30.0543 15.7887 31.4378 17.1785L39.2762 25.0546L31.9664 32.3365L28.5676 28.9258L28.5676 28.9257C27.064 27.4172 25.3044 27.3541 23.9707 27.6518C23.3074 27.7999 22.7394 28.0379 22.3386 28.2372C22.1375 28.3373 21.9763 28.4287 21.864 28.4961C21.8077 28.5298 21.7636 28.5577 21.7326 28.5776C21.7171 28.5876 21.7048 28.5957 21.696 28.6016L21.6854 28.6087L21.682 28.611L21.6808 28.6118L21.6803 28.6121C21.6801 28.6123 21.6799 28.6124 21.9629 29.0246L21.6799 28.6124L21.1849 28.9522L21.6087 29.3775L31.497 39.3031L31.8499 39.6573L32.2041 39.3045L46.1376 25.4235L46.4588 25.1035L46.4386 25.0788L46.5086 25.0087L46.1566 24.6552L32.28 10.7195L31.8763 10.314L31.5286 10.7684L31.9257 11.0723C31.5286 10.7684 31.5285 10.7686 31.5284 10.7688L31.528 10.7692L31.5272 10.7703L31.5248 10.7734L31.5175 10.7833C31.5114 10.7914 31.503 10.8028 31.4926 10.8172C31.4717 10.846 31.4426 10.8871 31.4072 10.9394C31.3362 11.044 31.2394 11.1941 31.1319 11.3812C30.9179 11.7538 30.6561 12.2823 30.4743 12.8983Z" fill="#1A73E8" stroke="#18447C"/>
<mask id="path-6-outside-3_195_16" maskUnits="userSpaceOnUse" x="28.0835" y="21.1636" width="8" height="8" fill="black">
<rect fill="white" x="28.0835" y="21.1636" width="8" height="8"/>
<path d="M29.9414 22.9865L29.9108 23.015C29.3823 23.5418 29.0847 24.2571 29.0835 25.0033C29.0823 25.7496 29.3775 26.4658 29.9042 26.9944L29.9327 27.0251C30.4597 27.554 31.1751 27.852 31.9217 27.8536C32.6683 27.8553 33.385 27.5604 33.9143 27.0338L33.9428 27.0032C35.0444 25.9081 35.0488 24.1253 33.9515 23.0237L33.9231 22.9931C33.6623 22.7309 33.3524 22.5227 33.0111 22.3804C32.6698 22.2381 32.3038 22.1644 31.9341 22.1636C31.5643 22.1628 31.198 22.2348 30.8561 22.3757C30.5142 22.5165 30.2034 22.7233 29.9414 22.9843"/>
</mask>
<path d="M29.9414 22.9865L29.9108 23.015C29.3823 23.5418 29.0847 24.2571 29.0835 25.0033C29.0823 25.7496 29.3775 26.4658 29.9042 26.9944L29.9327 27.0251C30.4597 27.554 31.1751 27.852 31.9217 27.8536C32.6683 27.8553 33.385 27.5604 33.9143 27.0338L33.9428 27.0032C35.0444 25.9081 35.0488 24.1253 33.9515 23.0237L33.9231 22.9931C33.6623 22.7309 33.3524 22.5227 33.0111 22.3804C32.6698 22.2381 32.3038 22.1644 31.9341 22.1636C31.5643 22.1628 31.198 22.2348 30.8561 22.3757C30.5142 22.5165 30.2034 22.7233 29.9414 22.9843" fill="#1A73E8"/>
<path d="M29.9108 23.015L29.2303 22.2822L29.2173 22.2943L29.2047 22.3068L29.9108 23.015ZM29.9042 26.9944L30.637 26.314L30.625 26.301L30.6126 26.2886L29.9042 26.9944ZM29.9327 27.0251L29.1999 27.7055L29.2119 27.7184L29.2243 27.7309L29.9327 27.0251ZM33.9143 27.0338L34.6196 27.7427L34.6337 27.7288L34.6471 27.7142L33.9143 27.0338ZM33.9428 27.0032L33.2378 26.2939L33.2236 26.3081L33.21 26.3227L33.9428 27.0032ZM33.9515 23.0237L33.2188 23.7042L33.2307 23.717L33.243 23.7294L33.9515 23.0237ZM33.9231 22.9931L34.6559 22.3126L34.6442 22.3L34.632 22.2878L33.9231 22.9931ZM29.261 22.2537L29.2303 22.2822L30.5913 23.7477L30.6219 23.7193L29.261 22.2537ZM29.2047 22.3068C28.4885 23.0209 28.0852 23.9902 28.0835 25.0017L30.0835 25.005C30.0843 24.5239 30.2761 24.0628 30.6168 23.7231L29.2047 22.3068ZM28.0835 25.0017C28.0818 26.0131 28.4819 26.9838 29.1958 27.7002L30.6126 26.2886C30.273 25.9478 30.0827 25.4861 30.0835 25.005L28.0835 25.0017ZM29.1714 27.6748L29.1999 27.7055L30.6655 26.3446L30.637 26.314L29.1714 27.6748ZM29.2243 27.7309C29.9384 28.4476 30.9078 28.8514 31.9195 28.8536L31.9239 26.8536C31.4424 26.8526 30.981 26.6604 30.6411 26.3192L29.2243 27.7309ZM31.9195 28.8536C32.9312 28.8559 33.9024 28.4563 34.6196 27.7427L33.209 26.3249C32.8677 26.6645 32.4054 26.8547 31.9239 26.8536L31.9195 28.8536ZM34.6471 27.7142L34.6756 27.6836L33.21 26.3227L33.1815 26.3534L34.6471 27.7142ZM34.6478 27.7124C36.1416 26.2274 36.1471 23.8109 34.6601 22.318L33.243 23.7294C33.9505 24.4397 33.9472 25.5888 33.2378 26.2939L34.6478 27.7124ZM34.6843 22.3433L34.6559 22.3126L33.1903 23.6735L33.2188 23.7042L34.6843 22.3433ZM34.632 22.2878C34.2786 21.9325 33.8586 21.6503 33.396 21.4574L32.6262 23.3034C32.8462 23.3951 33.046 23.5293 33.2141 23.6983L34.632 22.2878ZM33.396 21.4574C32.9335 21.2645 32.4374 21.1647 31.9363 21.1636L31.9319 23.1636C32.1703 23.1641 32.4062 23.2116 32.6262 23.3034L33.396 21.4574ZM31.9363 21.1636C31.4351 21.1625 30.9387 21.2602 30.4753 21.451L31.2369 23.3003C31.4573 23.2095 31.6935 23.1631 31.9319 23.1636L31.9363 21.1636ZM30.4753 21.451C30.0119 21.6419 29.5906 21.9222 29.2356 22.2759L30.6473 23.6927C30.8161 23.5244 31.0165 23.3911 31.2369 23.3003L30.4753 21.451Z" fill="#18447C" mask="url(#path-6-outside-3_195_16)"/>
</svg>
