<svg width="52" height="38" viewBox="0 0 52 38" fill="none" xmlns="http://www.w3.org/2000/svg">
<g id="Group" filter="url(#filter0_d_35_229)">
<g id="Vector">
<mask id="path-1-outside-1_35_229" maskUnits="userSpaceOnUse" x="15.0815" y="11.3524" width="8" height="8" fill="black">
<rect fill="white" x="15.0815" y="11.3524" width="8" height="8"/>
<path d="M16.866 13.1144L16.838 13.1408C16.3552 13.6291 16.083 14.2921 16.0815 14.9841C16.08 15.676 16.3493 16.3403 16.83 16.8307L16.858 16.8591C17.858 17.8806 19.486 17.8847 20.492 16.8673L20.52 16.8388C21.526 15.8234 21.53 14.1704 20.528 13.1489L20.5 13.1205C20.0191 12.6302 19.3662 12.3539 18.6847 12.3524C18.0032 12.3508 17.349 12.6242 16.866 13.1124"/>
</mask>
<path d="M16.866 13.1144L16.838 13.1408C16.3552 13.6291 16.083 14.2921 16.0815 14.9841C16.08 15.676 16.3493 16.3403 16.83 16.8307L16.858 16.8591C17.858 17.8806 19.486 17.8847 20.492 16.8673L20.52 16.8388C21.526 15.8234 21.53 14.1704 20.528 13.1489L20.5 13.1205C20.0191 12.6302 19.3662 12.3539 18.6847 12.3524C18.0032 12.3508 17.349 12.6242 16.866 13.1124" fill="#439943"/>
<path d="M16.838 13.1408L16.152 12.4132L16.1393 12.4252L16.127 12.4376L16.838 13.1408ZM16.83 16.8307L16.1159 17.5307L16.1175 17.5324L16.83 16.8307ZM16.858 16.8591L17.5726 16.1596L17.5705 16.1574L16.858 16.8591ZM20.492 16.8673L21.2031 17.5704L21.2045 17.5689L20.492 16.8673ZM20.52 16.8388L19.8096 16.135L19.8075 16.1371L20.52 16.8388ZM20.528 13.1489L21.2419 12.4486L21.2405 12.4472L20.528 13.1489ZM20.5 13.1205L19.7861 13.8207L19.7875 13.8222L20.5 13.1205ZM16.18 12.3868L16.152 12.4132L17.5241 13.8684L17.5521 13.842L16.18 12.3868ZM16.127 12.4376C15.4579 13.1142 15.0836 14.0296 15.0816 14.9819L17.0815 14.9862C17.0825 14.5545 17.2524 14.144 17.5491 13.8439L16.127 12.4376ZM15.0816 14.9819C15.0795 15.9341 15.4498 16.8512 16.1159 17.5307L17.5442 16.1307C17.2487 15.8293 17.0806 15.4179 17.0815 14.9862L15.0816 14.9819ZM16.1175 17.5324L16.1455 17.5608L17.5705 16.1574L17.5425 16.129L16.1175 17.5324ZM16.1434 17.5587C17.5345 18.9796 19.8046 18.9848 21.2031 17.5704L19.7809 16.1641C19.1675 16.7846 18.1816 16.7816 17.5726 16.1596L16.1434 17.5587ZM21.2045 17.5689L21.2325 17.5405L19.8075 16.1371L19.7795 16.1656L21.2045 17.5689ZM21.2304 17.5426C22.6215 16.1385 22.6264 13.8601 21.2419 12.4486L19.8141 13.8492C20.4336 14.4807 20.4305 15.5083 19.8096 16.135L21.2304 17.5426ZM21.2405 12.4472L21.2125 12.4188L19.7875 13.8222L19.8155 13.8506L21.2405 12.4472ZM21.214 12.4203C20.5472 11.7404 19.6385 11.3545 18.6869 11.3524L18.6824 13.3524C19.0938 13.3533 19.4911 13.5199 19.7861 13.8207L21.214 12.4203ZM18.6869 11.3524C17.7353 11.3502 16.8249 11.7321 16.1552 12.409L17.5769 13.8157C17.8731 13.5163 18.2711 13.3514 18.6824 13.3524L18.6869 11.3524Z" fill="#527D53" mask="url(#path-1-outside-1_35_229)"/>
</g>
<path id="Vector_2" d="M19.1589 1.64982L18.8034 1.28755L18.4465 1.64838L15.6945 4.43054L15.3653 4.76341L15.3831 4.78358L9.222 11.0072V10.9976L8.36679 11.8609L5.64479 14.6085L5.29721 14.9594L5.33818 15.001L5.32861 15.0126L5.64324 15.3331L8.33406 18.0734L8.33524 18.0746L18.3561 28.3491L18.7645 28.7678L19.1145 28.2993L18.714 28C19.1145 28.2993 19.1147 28.2991 19.1148 28.2989L19.1151 28.2985L19.116 28.2974L19.1182 28.2943L19.1252 28.2847C19.131 28.2768 19.1389 28.2658 19.1487 28.2519C19.1683 28.2241 19.1955 28.1846 19.2287 28.1343C19.295 28.0338 19.3852 27.8898 19.485 27.71C19.6838 27.3522 19.9255 26.8441 20.0897 26.2502C20.4191 25.0581 20.4443 23.4616 19.1111 22.102C19.1111 22.1019 19.111 22.1019 19.111 22.1018L12.1214 14.968L18.7585 8.25087L22.1108 11.6731C22.1108 11.6731 22.1108 11.6732 22.1108 11.6732C22.951 12.5312 23.7667 12.9914 24.539 13.1618C25.3149 13.3329 26.0011 13.2014 26.5602 12.9556C27.1133 12.7124 27.5433 12.3578 27.8311 12.0718C27.9763 11.9276 28.0887 11.7975 28.166 11.7018C28.2047 11.6539 28.2349 11.6143 28.2561 11.5856C28.2667 11.5712 28.2751 11.5596 28.2812 11.5509L28.2888 11.5402L28.2913 11.5366L28.2922 11.5352L28.2926 11.5346C28.2928 11.5344 28.2929 11.5342 27.88 11.2522L28.2929 11.5342L28.5244 11.1951L28.2369 10.902L19.1589 1.64982ZM5.99892 14.9615V14.9615ZM39.9844 15.032L33.3653 21.7272L30.2949 18.5986L30.2948 18.5986C28.9081 17.186 27.2822 17.1265 26.0525 17.4052C25.4418 17.5436 24.9193 17.7659 24.5511 17.9519C24.3661 18.0454 24.2179 18.1307 24.1144 18.1938C24.0626 18.2253 24.0219 18.2513 23.9932 18.2701C23.9866 18.2744 23.9807 18.2784 23.9753 18.2819C23.9691 18.2861 23.9637 18.2897 23.9593 18.2927L23.9493 18.2995L23.9461 18.3017L23.945 18.3025L23.9445 18.3028C23.9443 18.3029 23.9441 18.3031 24.23 18.7133L23.9441 18.3031L23.4589 18.6412L23.8731 19.0634L32.9031 28.2669L33.2587 28.6293L33.6156 28.2683L46.3396 15.3972L46.6535 15.0797L46.635 15.0567L46.701 14.9896L46.357 14.6387L33.685 1.71693L33.2783 1.30219L32.9287 1.76611L33.328 2.06702C32.9287 1.76611 32.9286 1.76628 32.9284 1.76646L32.9281 1.76688L32.9273 1.76794L32.9251 1.77091L32.9182 1.78024C32.9126 1.78794 32.9048 1.7986 32.8952 1.81211C32.876 1.83911 32.8492 1.87752 32.8166 1.92637C32.7514 2.02396 32.6625 2.16384 32.5638 2.33821C32.3675 2.68523 32.1273 3.17773 31.9604 3.75185C31.6262 4.9013 31.5731 6.45045 32.8489 7.75185C32.8489 7.75186 32.8489 7.75188 32.849 7.7519L39.9844 15.032Z" fill="#439943" stroke="#527D53"/>
<g id="Vector_3">
<mask id="path-4-outside-2_35_229" maskUnits="userSpaceOnUse" x="29.7325" y="11.3514" width="8" height="8" fill="black">
<rect fill="white" x="29.7325" y="11.3514" width="8" height="8"/>
<path d="M31.516 13.1144L31.488 13.1408C31.0054 13.6294 30.7337 14.2926 30.7325 14.9845C30.7314 15.6765 31.001 16.3406 31.482 16.8307L31.508 16.8592C31.9892 17.3496 32.6426 17.6259 33.3244 17.6275C34.0062 17.629 34.6607 17.3556 35.144 16.8673L35.17 16.8389C36.176 15.8235 36.18 14.1704 35.178 13.1489L35.152 13.1205C34.9139 12.8774 34.6309 12.6844 34.3192 12.5524C34.0076 12.4205 33.6734 12.3521 33.3357 12.3514C32.998 12.3506 32.6635 12.4175 32.3513 12.548C32.039 12.6786 31.7552 12.8704 31.516 13.1124"/>
</mask>
<path d="M31.516 13.1144L31.488 13.1408C31.0054 13.6294 30.7337 14.2926 30.7325 14.9845C30.7314 15.6765 31.001 16.3406 31.482 16.8307L31.508 16.8592C31.9892 17.3496 32.6426 17.6259 33.3244 17.6275C34.0062 17.629 34.6607 17.3556 35.144 16.8673L35.17 16.8389C36.176 15.8235 36.18 14.1704 35.178 13.1489L35.152 13.1205C34.9139 12.8774 34.6309 12.6844 34.3192 12.5524C34.0076 12.4205 33.6734 12.3521 33.3357 12.3514C32.998 12.3506 32.6635 12.4175 32.3513 12.548C32.039 12.6786 31.7552 12.8704 31.516 13.1124" fill="#439943"/>
<path d="M31.488 13.1408L30.802 12.4132L30.7891 12.4254L30.7766 12.4381L31.488 13.1408ZM31.482 16.8307L32.22 16.1559L32.2081 16.1429L32.1958 16.1303L31.482 16.8307ZM31.508 16.8592L30.7701 17.534L30.7819 17.547L30.7943 17.5596L31.508 16.8592ZM35.144 16.8673L35.8547 17.5708L35.8686 17.5567L35.882 17.5421L35.144 16.8673ZM35.17 16.8389L34.4596 16.135L34.4455 16.1493L34.432 16.164L35.17 16.8389ZM35.178 13.1489L34.4401 13.8238L34.4519 13.8367L34.4641 13.8492L35.178 13.1489ZM35.152 13.1205L35.89 12.4456L35.8784 12.433L35.8663 12.4207L35.152 13.1205ZM30.83 12.3868L30.802 12.4132L32.1741 13.8684L32.2021 13.842L30.83 12.3868ZM30.7766 12.4381C30.1079 13.115 29.7341 14.0306 29.7325 14.9829L31.7325 14.9861C31.7332 14.5545 31.9029 14.1438 32.1994 13.8436L30.7766 12.4381ZM29.7325 14.9829C29.731 15.9351 30.1018 16.852 30.7683 17.5311L32.1958 16.1303C31.9002 15.8291 31.7318 15.4178 31.7325 14.9861L29.7325 14.9829ZM30.7441 17.5056L30.7701 17.534L32.246 16.1843L32.22 16.1559L30.7441 17.5056ZM30.7943 17.5596C31.4614 18.2394 32.3703 18.6253 33.3221 18.6275L33.3266 16.6275C32.9148 16.6265 32.5171 16.4598 32.2218 16.1588L30.7943 17.5596ZM33.3221 18.6275C34.274 18.6296 35.1846 18.2477 35.8547 17.5708L34.4333 16.1638C34.1367 16.4634 33.7383 16.6284 33.3266 16.6275L33.3221 18.6275ZM35.882 17.5421L35.908 17.5137L34.432 16.164L34.406 16.1925L35.882 17.5421ZM35.8804 17.5427C37.2715 16.1386 37.2764 13.8601 35.8919 12.4487L34.4641 13.8492C35.0836 14.4807 35.0805 15.5084 34.4596 16.135L35.8804 17.5427ZM35.916 12.4741L35.89 12.4456L34.4141 13.7954L34.4401 13.8238L35.916 12.4741ZM35.8663 12.4207C35.5362 12.0838 35.1432 11.8154 34.7092 11.6316L33.9293 13.4733C34.1186 13.5534 34.2915 13.6711 34.4377 13.8203L35.8663 12.4207ZM34.7092 11.6316C34.2751 11.4478 33.8091 11.3524 33.3379 11.3514L33.3334 13.3514C33.5376 13.3518 33.74 13.3931 33.9293 13.4733L34.7092 11.6316ZM33.3379 11.3514C32.8667 11.3503 32.4003 11.4436 31.9654 11.6255L32.7371 13.4706C32.9267 13.3913 33.1293 13.3509 33.3334 13.3514L33.3379 11.3514ZM31.9654 11.6255C31.5306 11.8073 31.1364 12.074 30.8048 12.4094L32.2272 13.8154C32.3741 13.6668 32.5475 13.5499 32.7371 13.4706L31.9654 11.6255Z" fill="#527D53" mask="url(#path-4-outside-2_35_229)"/>
</g>
</g>
<defs>
<filter id="filter0_d_35_229" x="0.594421" y="0.537354" width="50.8077" height="36.9983" filterUnits="userSpaceOnUse" color-interpolation-filters="sRGB">
<feFlood flood-opacity="0" result="BackgroundImageFix"/>
<feColorMatrix in="SourceAlpha" type="matrix" values="0 0 0 0 0 0 0 0 0 0 0 0 0 0 0 0 0 0 127 0" result="hardAlpha"/>
<feOffset dy="4"/>
<feGaussianBlur stdDeviation="2"/>
<feComposite in2="hardAlpha" operator="out"/>
<feColorMatrix type="matrix" values="0 0 0 0 0 0 0 0 0 0 0 0 0 0 0 0 0 0 0.25 0"/>
<feBlend mode="normal" in2="BackgroundImageFix" result="effect1_dropShadow_35_229"/>
<feBlend mode="normal" in="SourceGraphic" in2="effect1_dropShadow_35_229" result="shape"/>
</filter>
</defs>
</svg>
