<svg width="24" height="24" viewBox="0 0 24 24" fill="none" xmlns="http://www.w3.org/2000/svg">
<path id="Vector" d="M21.4417 23.25L13.3042 15.1125C12.6583 15.6292 11.9156 16.0382 11.076 16.3396C10.2365 16.641 9.34306 16.7917 8.39583 16.7917C6.04931 16.7917 4.06358 15.9788 2.43867 14.353C0.813751 12.7272 0.000861795 10.7415 6.83421e-07 8.39583C-0.000860428 6.05017 0.812028 4.06444 2.43867 2.43867C4.06531 0.812889 6.05103 0 8.39583 0C10.7406 0 12.7268 0.812889 14.3543 2.43867C15.9818 4.06444 16.7943 6.05017 16.7917 8.39583C16.7917 9.34306 16.641 10.2365 16.3396 11.076C16.0382 11.9156 15.6292 12.6583 15.1125 13.3042L23.25 21.4417L21.4417 23.25ZM8.39583 14.2083C10.0104 14.2083 11.383 13.6434 12.5137 12.5137C13.6443 11.3839 14.2092 10.0113 14.2083 8.39583C14.2075 6.78039 13.6426 5.40821 12.5137 4.27929C11.3848 3.15038 10.0121 2.58506 8.39583 2.58333C6.77953 2.58161 5.40735 3.14693 4.27929 4.27929C3.15124 5.41165 2.58592 6.78383 2.58333 8.39583C2.58075 10.0078 3.14607 11.3804 4.27929 12.5137C5.41251 13.6469 6.78469 14.2118 8.39583 14.2083Z" fill="black"/>
</svg>
